<svg id="svg" version="1.1" xmlns="http://www.w3.org/2000/svg" xmlns:xlink="http://www.w3.org/1999/xlink" width="400" height="200.42949176807443" viewBox="0, 0, 400,200.42949176807443"><g id="svgg"><path id="path0" d="M326.462 72.185 C 326.271 72.403,325.977 72.743,325.807 72.940 C 325.638 73.137,325.282 73.655,325.016 74.093 C 324.750 74.530,324.482 74.932,324.421 74.987 C 324.360 75.043,324.039 75.494,323.709 75.990 C 323.379 76.486,323.051 76.937,322.980 76.992 C 322.909 77.048,322.646 77.486,322.396 77.968 C 322.146 78.449,321.681 79.126,321.364 79.471 C 321.047 79.817,320.737 80.297,320.676 80.537 C 320.615 80.777,320.438 81.022,320.283 81.082 C 320.127 81.142,320.000 81.329,320.000 81.497 C 320.000 81.666,319.908 81.805,319.795 81.805 C 319.683 81.805,319.480 82.053,319.345 82.356 C 319.090 82.932,319.045 82.999,318.383 83.801 C 318.160 84.071,317.783 84.613,317.545 85.004 C 317.308 85.394,317.060 85.759,316.994 85.815 C 316.929 85.870,316.608 86.343,316.282 86.867 C 315.956 87.390,315.622 87.819,315.539 87.819 C 315.456 87.819,315.388 87.958,315.388 88.127 C 315.388 88.295,315.259 88.483,315.100 88.544 C 314.941 88.605,314.754 88.918,314.683 89.240 C 314.612 89.561,314.469 89.825,314.364 89.825 C 314.259 89.825,314.114 89.978,314.042 90.167 C 313.918 90.489,313.792 90.660,312.932 91.677 C 312.739 91.905,312.581 92.172,312.581 92.270 C 312.581 92.368,312.493 92.557,312.384 92.690 C 311.511 93.761,311.178 94.212,311.178 94.323 C 311.178 94.395,311.086 94.562,310.974 94.695 C 310.348 95.441,309.373 96.843,309.373 97.000 C 309.373 97.099,309.193 97.344,308.972 97.544 C 308.752 97.743,308.571 98.028,308.571 98.176 C 308.571 98.325,308.486 98.446,308.382 98.446 C 308.205 98.446,307.952 98.833,307.334 100.050 C 307.194 100.326,306.893 100.732,306.665 100.953 C 306.438 101.174,305.958 101.851,305.600 102.457 C 304.673 104.026,304.527 104.240,303.909 104.935 C 303.605 105.276,303.300 105.733,303.231 105.951 C 303.162 106.169,303.004 106.453,302.881 106.583 C 302.758 106.712,302.521 107.022,302.356 107.271 C 302.190 107.521,301.852 107.974,301.604 108.277 C 301.356 108.581,301.153 108.922,301.153 109.035 C 301.153 109.148,301.085 109.270,301.003 109.307 C 300.798 109.398,299.950 110.620,299.950 110.825 C 299.950 110.915,299.792 111.134,299.599 111.311 C 299.048 111.817,298.546 112.538,298.546 112.823 C 298.546 112.966,298.479 113.084,298.396 113.086 C 298.313 113.089,297.975 113.538,297.644 114.085 C 297.313 114.632,296.975 115.082,296.892 115.084 C 296.810 115.086,296.742 115.209,296.742 115.358 C 296.742 115.506,296.561 115.836,296.341 116.090 C 296.120 116.345,295.940 116.615,295.940 116.692 C 295.940 116.768,295.750 117.048,295.518 117.313 C 294.849 118.075,293.935 119.450,293.935 119.692 C 293.935 119.813,293.799 119.964,293.634 120.028 C 293.469 120.091,293.333 120.253,293.333 120.386 C 293.333 120.520,293.060 120.936,292.726 121.310 C 292.391 121.684,291.880 122.400,291.590 122.900 C 291.300 123.400,291.009 123.855,290.944 123.910 C 290.879 123.965,290.697 124.260,290.540 124.566 C 290.382 124.872,290.002 125.413,289.694 125.769 C 289.387 126.125,289.042 126.525,288.929 126.658 C 288.815 126.791,288.722 126.954,288.722 127.020 C 288.722 127.170,286.473 130.590,286.281 130.731 C 286.034 130.913,285.113 132.340,285.113 132.540 C 285.113 132.646,285.024 132.732,284.916 132.732 C 284.808 132.732,284.664 132.951,284.597 133.219 C 284.530 133.486,284.348 133.754,284.192 133.814 C 284.037 133.873,283.910 134.018,283.910 134.135 C 283.910 134.252,283.571 134.784,283.158 135.316 C 282.744 135.849,282.297 136.456,282.164 136.664 C 282.031 136.872,281.422 137.801,280.811 138.727 C 280.199 139.654,279.699 140.447,279.699 140.490 C 279.699 140.533,279.605 140.677,279.490 140.810 C 278.894 141.500,277.093 144.153,277.093 144.343 C 277.093 144.463,277.025 144.562,276.942 144.562 C 276.860 144.562,276.525 144.991,276.199 145.514 C 275.874 146.038,275.490 146.538,275.347 146.627 C 275.205 146.715,275.088 146.875,275.088 146.982 C 275.088 147.220,273.726 149.224,273.448 149.396 C 273.338 149.463,273.257 149.599,273.267 149.697 C 273.277 149.795,273.082 150.145,272.836 150.476 C 272.589 150.807,272.381 151.168,272.375 151.278 C 272.368 151.388,272.260 151.458,272.133 151.433 C 272.007 151.407,271.841 151.588,271.765 151.834 C 271.688 152.080,271.570 152.326,271.502 152.381 C 271.184 152.640,270.846 153.426,271.113 153.288 C 271.259 153.212,271.108 153.400,270.777 153.706 C 270.446 154.011,270.332 154.202,270.523 154.131 C 270.849 154.008,271.175 154.336,271.275 154.887 C 271.295 154.997,271.364 155.133,271.427 155.188 C 271.491 155.243,271.484 155.185,271.412 155.059 C 271.340 154.932,271.423 154.774,271.596 154.708 C 272.086 154.520,272.150 154.561,271.880 154.887 C 271.736 155.061,271.716 155.188,271.834 155.188 C 272.102 155.188,272.318 154.608,272.150 154.337 C 272.078 154.220,272.101 154.175,272.202 154.237 C 272.303 154.299,272.565 154.211,272.784 154.040 C 273.169 153.741,273.170 153.735,272.793 153.866 C 272.413 153.999,272.413 153.992,272.774 153.593 C 273.190 153.133,273.381 153.055,273.163 153.434 C 273.079 153.579,273.095 153.614,273.201 153.517 C 273.301 153.425,273.383 153.276,273.383 153.185 C 273.383 153.095,273.632 152.741,273.936 152.400 C 274.240 152.059,274.421 151.778,274.337 151.776 C 274.254 151.775,274.304 151.698,274.449 151.606 C 274.595 151.514,274.733 151.305,274.757 151.141 C 274.781 150.978,275.091 150.477,275.445 150.030 C 275.800 149.582,276.090 149.116,276.090 148.994 C 276.090 148.872,276.183 148.772,276.297 148.772 C 276.411 148.772,276.564 148.614,276.638 148.421 C 276.711 148.228,276.934 147.895,277.133 147.681 C 277.331 147.468,277.494 147.174,277.494 147.030 C 277.494 146.885,277.566 146.767,277.655 146.767 C 277.857 146.767,279.499 144.455,279.499 144.170 C 279.499 144.055,279.583 143.960,279.686 143.960 C 279.789 143.960,279.935 143.764,280.011 143.524 C 280.160 143.056,280.397 142.721,280.952 142.197 C 281.145 142.015,281.303 141.795,281.303 141.708 C 281.303 141.531,282.640 139.589,283.031 139.197 C 283.169 139.058,283.339 138.765,283.409 138.545 C 283.479 138.325,283.620 138.145,283.723 138.145 C 283.826 138.145,283.910 138.007,283.910 137.838 C 283.910 137.669,284.045 137.479,284.211 137.416 C 284.376 137.352,284.511 137.224,284.511 137.130 C 284.511 137.037,284.738 136.618,285.016 136.199 C 285.294 135.781,285.632 135.270,285.768 135.065 C 285.904 134.859,286.159 134.498,286.335 134.263 C 287.068 133.282,288.120 131.726,288.120 131.622 C 288.120 131.561,288.337 131.277,288.602 130.992 C 288.867 130.706,289.206 130.236,289.354 129.948 C 289.503 129.659,289.743 129.298,289.888 129.145 C 290.034 128.991,290.298 128.631,290.475 128.343 C 291.390 126.854,293.780 123.335,294.132 122.957 C 294.355 122.718,294.536 122.459,294.536 122.380 C 294.536 122.301,294.686 122.071,294.869 121.869 C 295.209 121.493,295.523 120.993,295.980 120.100 C 296.120 119.825,296.339 119.509,296.466 119.398 C 296.828 119.083,298.145 117.119,298.145 116.894 C 298.145 116.783,298.236 116.692,298.346 116.692 C 298.456 116.692,298.546 116.592,298.546 116.470 C 298.546 116.348,298.749 115.996,298.997 115.688 C 299.996 114.446,300.473 113.784,300.933 113.001 C 301.197 112.550,301.716 111.804,302.085 111.345 C 302.455 110.885,302.757 110.411,302.757 110.292 C 302.757 110.173,302.825 110.075,302.908 110.075 C 302.992 110.075,303.188 109.782,303.344 109.424 C 303.499 109.065,303.692 108.727,303.772 108.672 C 304.084 108.456,305.564 106.363,305.564 106.137 C 305.564 106.006,305.632 105.868,305.714 105.831 C 305.897 105.750,307.168 103.946,307.168 103.768 C 307.168 103.699,307.393 103.398,307.669 103.101 C 307.945 102.804,308.170 102.447,308.170 102.308 C 308.170 102.169,308.256 102.055,308.362 102.055 C 308.467 102.055,308.703 101.739,308.886 101.352 C 309.070 100.965,309.434 100.446,309.694 100.199 C 309.955 99.952,310.170 99.644,310.172 99.515 C 310.174 99.387,310.247 99.251,310.334 99.215 C 310.422 99.178,310.708 98.787,310.971 98.346 C 311.234 97.905,311.574 97.409,311.727 97.243 C 312.119 96.817,313.571 94.569,313.578 94.376 C 313.581 94.288,313.789 94.018,314.039 93.775 C 314.578 93.252,315.589 91.725,315.589 91.433 C 315.589 91.320,315.679 91.228,315.789 91.228 C 315.900 91.228,315.990 91.093,315.990 90.927 C 315.990 90.762,316.074 90.627,316.176 90.627 C 316.279 90.627,316.797 89.928,317.329 89.074 C 317.861 88.220,318.450 87.366,318.638 87.177 C 318.827 86.988,319.157 86.492,319.373 86.073 C 319.588 85.655,319.937 85.131,320.147 84.909 C 320.357 84.687,320.789 84.055,321.107 83.506 C 321.425 82.956,321.749 82.461,321.827 82.405 C 321.905 82.350,322.469 81.538,323.080 80.601 C 323.691 79.664,324.321 78.762,324.480 78.596 C 324.639 78.431,325.056 77.799,325.407 77.193 C 325.758 76.586,326.152 75.999,326.281 75.887 C 326.614 75.600,327.419 74.434,327.419 74.238 C 327.419 74.148,327.599 73.920,327.820 73.731 C 328.040 73.542,328.221 73.161,328.221 72.884 C 328.221 72.515,328.114 72.381,327.820 72.381 C 327.599 72.381,327.419 72.300,327.419 72.202 C 327.419 71.818,326.792 71.806,326.462 72.185 M369.149 153.367 C 369.006 153.456,368.873 153.609,368.855 153.707 C 368.837 153.805,368.754 153.862,368.672 153.835 C 368.412 153.748,368.509 154.347,368.772 154.454 C 368.938 154.521,368.918 154.560,368.712 154.571 C 368.541 154.579,368.293 154.478,368.160 154.346 C 368.028 154.214,367.924 154.191,367.929 154.296 C 367.934 154.401,369.084 155.058,370.485 155.756 C 371.886 156.454,373.168 157.103,373.333 157.197 C 373.499 157.292,374.148 157.623,374.777 157.933 C 377.864 159.454,379.455 160.297,379.515 160.442 C 379.552 160.530,379.671 160.602,379.778 160.602 C 380.086 160.602,382.248 161.653,382.322 161.839 C 382.359 161.930,382.485 162.005,382.601 162.005 C 382.893 162.005,384.646 162.872,384.728 163.058 C 384.765 163.140,384.887 163.208,384.999 163.208 C 385.234 163.208,388.622 164.846,388.772 165.032 C 388.827 165.101,389.211 165.278,389.624 165.426 C 390.038 165.574,390.376 165.760,390.376 165.839 C 390.376 165.918,390.647 166.043,390.977 166.115 C 391.308 166.188,391.579 166.323,391.579 166.416 C 391.579 166.509,391.850 166.644,392.180 166.717 C 392.511 166.789,392.782 166.918,392.782 167.001 C 392.782 167.085,393.143 167.273,393.584 167.419 C 394.025 167.564,394.386 167.752,394.386 167.836 C 394.386 167.920,394.657 168.048,394.987 168.120 C 395.318 168.193,395.589 168.328,395.589 168.421 C 395.589 168.514,395.860 168.649,396.190 168.722 C 396.521 168.794,396.792 168.933,396.792 169.030 C 396.792 169.128,397.153 169.315,397.594 169.447 C 398.035 169.579,398.396 169.756,398.396 169.840 C 398.396 169.924,398.667 170.053,398.997 170.125 C 399.328 170.198,399.599 170.340,399.599 170.442 C 399.599 170.544,399.689 170.627,399.799 170.627 C 400.635 170.627,399.837 168.338,398.921 168.108 C 398.632 168.036,398.396 167.910,398.396 167.830 C 398.396 167.749,398.035 167.574,397.594 167.442 C 397.153 167.310,396.792 167.123,396.792 167.025 C 396.792 166.928,396.521 166.789,396.190 166.717 C 395.860 166.644,395.589 166.509,395.589 166.416 C 395.589 166.323,395.318 166.188,394.987 166.115 C 394.657 166.043,394.386 165.914,394.386 165.830 C 394.386 165.746,394.025 165.569,393.584 165.437 C 393.143 165.305,392.782 165.118,392.782 165.020 C 392.782 164.923,392.511 164.784,392.180 164.712 C 391.850 164.639,391.579 164.497,391.579 164.395 C 391.579 164.294,391.483 164.211,391.366 164.211 C 391.085 164.211,388.901 163.184,388.770 162.990 C 388.714 162.907,388.420 162.777,388.118 162.701 C 387.816 162.625,387.569 162.483,387.569 162.384 C 387.569 162.286,387.463 162.206,387.334 162.206 C 387.059 162.206,383.708 160.579,383.557 160.372 C 383.501 160.295,383.207 160.170,382.905 160.094 C 382.603 160.019,382.356 159.883,382.356 159.794 C 382.356 159.704,382.086 159.572,381.757 159.499 C 381.427 159.427,381.113 159.295,381.058 159.206 C 381.003 159.117,380.077 158.608,379.000 158.075 C 377.923 157.542,376.997 157.042,376.940 156.965 C 376.884 156.887,376.591 156.762,376.289 156.686 C 375.987 156.610,375.739 156.468,375.739 156.369 C 375.739 156.271,375.571 156.190,375.365 156.190 C 375.160 156.190,374.762 156.010,374.482 155.789 C 374.201 155.569,373.889 155.388,373.788 155.388 C 373.687 155.388,372.905 155.027,372.050 154.584 C 371.195 154.142,370.412 153.831,370.310 153.894 C 370.209 153.957,370.125 153.853,370.125 153.663 C 370.125 153.472,370.066 153.376,369.993 153.449 C 369.921 153.521,369.760 153.496,369.636 153.393 C 369.512 153.290,369.293 153.278,369.149 153.367 M271.145 156.040 C 270.928 156.389,270.879 156.814,271.071 156.696 C 271.232 156.596,271.499 155.789,271.372 155.789 C 271.333 155.789,271.231 155.902,271.145 156.040 " stroke="none" fill="#8343b2" fill-rule="evenodd"/><path id="path1" d="M308.092 123.024 C 307.770 123.861,307.956 124.476,308.571 124.612 C 308.902 124.684,309.173 124.823,309.173 124.920 C 309.173 125.017,309.534 125.205,309.975 125.337 C 310.416 125.469,310.777 125.646,310.777 125.730 C 310.777 125.814,311.048 125.942,311.378 126.015 C 311.709 126.088,311.980 126.223,311.980 126.316 C 311.980 126.409,312.251 126.544,312.581 126.617 C 312.912 126.689,313.183 126.828,313.183 126.925 C 313.183 127.022,313.544 127.210,313.985 127.342 C 314.426 127.474,314.787 127.651,314.787 127.735 C 314.787 127.819,315.058 127.947,315.388 128.020 C 315.719 128.093,315.990 128.228,315.990 128.321 C 315.990 128.414,316.261 128.549,316.591 128.622 C 316.922 128.694,317.193 128.833,317.193 128.930 C 317.193 129.027,317.554 129.215,317.995 129.347 C 318.436 129.479,318.797 129.656,318.797 129.740 C 318.797 129.824,319.068 129.952,319.398 130.025 C 319.729 130.098,320.000 130.233,320.000 130.326 C 320.000 130.419,320.271 130.554,320.602 130.627 C 320.932 130.699,321.203 130.838,321.203 130.935 C 321.203 131.032,321.564 131.220,322.005 131.352 C 322.446 131.484,322.807 131.661,322.807 131.745 C 322.807 131.829,323.078 131.957,323.409 132.030 C 323.739 132.103,324.010 132.235,324.010 132.325 C 324.010 132.414,324.596 132.743,325.313 133.055 C 326.030 133.368,326.617 133.683,326.617 133.757 C 326.617 133.831,326.864 133.953,327.166 134.029 C 327.468 134.105,327.761 134.235,327.818 134.318 C 327.944 134.506,330.128 135.539,330.397 135.539 C 330.505 135.539,330.623 135.607,330.660 135.691 C 330.750 135.896,334.069 137.548,334.386 137.546 C 334.524 137.545,334.637 137.624,334.637 137.723 C 334.637 137.821,334.884 137.963,335.186 138.039 C 335.488 138.115,335.781 138.245,335.838 138.328 C 335.964 138.516,338.148 139.549,338.417 139.549 C 338.525 139.549,338.643 139.617,338.680 139.701 C 338.767 139.899,342.084 141.558,342.389 141.556 C 342.518 141.555,342.653 141.622,342.690 141.706 C 342.777 141.904,346.094 143.563,346.399 143.561 C 346.528 143.560,346.663 143.627,346.700 143.709 C 346.737 143.792,347.218 144.085,347.769 144.361 C 348.321 144.637,348.817 144.917,348.872 144.983 C 348.927 145.050,349.333 145.221,349.774 145.363 C 350.216 145.506,350.622 145.677,350.677 145.743 C 350.732 145.810,351.228 146.090,351.779 146.366 C 352.331 146.642,352.827 146.925,352.882 146.995 C 352.937 147.066,353.366 147.238,353.835 147.378 C 354.303 147.518,354.687 147.699,354.687 147.779 C 354.687 147.860,354.912 147.983,355.188 148.052 C 355.464 148.121,355.689 148.267,355.689 148.375 C 355.689 148.483,355.802 148.574,355.940 148.578 C 356.078 148.581,356.642 148.806,357.193 149.077 C 357.744 149.348,358.301 149.571,358.429 149.572 C 358.558 149.573,358.693 149.642,358.730 149.726 C 358.817 149.924,362.134 151.583,362.439 151.581 C 362.568 151.580,362.703 151.649,362.740 151.735 C 362.823 151.930,366.177 153.584,366.489 153.584 C 366.614 153.584,366.717 153.674,366.717 153.784 C 366.717 153.895,366.846 153.985,367.003 153.985 C 367.161 153.985,367.431 154.127,367.605 154.300 C 367.828 154.523,367.920 154.541,367.920 154.360 C 367.920 154.162,367.973 154.159,368.160 154.346 C 368.293 154.478,368.541 154.579,368.712 154.571 C 368.918 154.560,368.938 154.521,368.772 154.454 C 368.509 154.347,368.412 153.748,368.672 153.835 C 368.754 153.862,368.837 153.805,368.855 153.707 C 368.873 153.609,369.009 153.452,369.156 153.359 C 369.361 153.229,369.342 153.188,369.073 153.186 C 368.880 153.184,368.722 153.087,368.722 152.971 C 368.722 152.854,368.632 152.814,368.521 152.882 C 368.411 152.950,368.321 152.911,368.321 152.794 C 368.321 152.677,368.193 152.581,368.037 152.581 C 367.881 152.581,367.723 152.514,367.686 152.431 C 367.622 152.287,366.380 151.659,366.063 151.610 C 365.979 151.597,365.303 151.256,364.559 150.852 C 361.766 149.336,361.437 149.173,361.173 149.173 C 361.024 149.173,360.902 149.092,360.902 148.994 C 360.902 148.896,360.655 148.753,360.353 148.678 C 360.051 148.602,359.757 148.478,359.701 148.403 C 359.543 148.192,357.419 147.168,357.140 147.168 C 357.004 147.168,356.892 147.087,356.892 146.989 C 356.892 146.891,356.645 146.748,356.343 146.673 C 356.041 146.597,355.747 146.473,355.691 146.398 C 355.533 146.187,353.409 145.163,353.130 145.163 C 352.994 145.163,352.882 145.082,352.882 144.984 C 352.882 144.886,352.635 144.743,352.333 144.667 C 352.031 144.592,351.737 144.468,351.681 144.393 C 351.523 144.182,349.399 143.158,349.120 143.158 C 348.984 143.158,348.872 143.077,348.872 142.979 C 348.872 142.881,348.625 142.738,348.323 142.662 C 348.021 142.587,347.727 142.463,347.671 142.388 C 347.513 142.177,345.389 141.153,345.110 141.153 C 344.974 141.153,344.862 141.070,344.862 140.968 C 344.862 140.867,344.591 140.724,344.261 140.652 C 343.930 140.579,343.659 140.455,343.659 140.377 C 343.659 140.215,341.413 139.148,341.073 139.148 C 340.951 139.148,340.852 139.065,340.852 138.963 C 340.852 138.862,340.581 138.719,340.251 138.647 C 339.920 138.574,339.649 138.433,339.649 138.334 C 339.649 138.234,339.424 138.096,339.148 138.027 C 338.872 137.958,338.647 137.833,338.647 137.749 C 338.647 137.665,338.241 137.482,337.744 137.343 C 337.248 137.204,336.842 137.019,336.842 136.932 C 336.842 136.845,336.571 136.714,336.241 136.642 C 335.910 136.569,335.639 136.428,335.639 136.329 C 335.639 136.229,335.414 136.091,335.138 136.022 C 334.862 135.953,334.637 135.816,334.637 135.718 C 334.637 135.619,334.525 135.539,334.389 135.539 C 334.122 135.539,331.995 134.522,331.830 134.315 C 331.683 134.131,329.522 133.133,329.271 133.133 C 329.153 133.133,329.026 133.056,328.989 132.962 C 328.952 132.868,327.840 132.267,326.516 131.625 C 325.193 130.984,324.080 130.384,324.043 130.292 C 324.007 130.200,323.878 130.125,323.758 130.125 C 323.495 130.125,320.144 128.491,319.998 128.292 C 319.942 128.215,319.649 128.090,319.346 128.014 C 319.044 127.938,318.797 127.796,318.797 127.698 C 318.797 127.599,318.684 127.519,318.547 127.519 C 318.286 127.519,314.962 125.905,314.787 125.693 C 314.732 125.626,314.348 125.462,313.935 125.327 C 313.521 125.192,313.183 125.006,313.183 124.913 C 313.183 124.820,312.912 124.684,312.581 124.612 C 312.251 124.539,311.980 124.404,311.980 124.311 C 311.980 124.218,311.709 124.083,311.378 124.010 C 311.048 123.937,310.777 123.809,310.777 123.725 C 310.777 123.641,310.416 123.464,309.975 123.332 C 309.534 123.200,309.173 123.005,309.173 122.899 C 309.173 122.576,308.221 122.685,308.092 123.024 M272.872 153.495 C 272.607 153.777,272.526 153.955,272.691 153.892 C 272.952 153.792,273.601 152.982,273.420 152.982 C 273.383 152.982,273.136 153.213,272.872 153.495 M270.653 153.567 C 270.640 153.742,270.640 153.952,270.653 154.035 C 270.666 154.118,270.585 154.185,270.473 154.185 C 270.188 154.185,269.469 155.418,269.615 155.656 C 269.682 155.763,269.655 155.807,269.555 155.752 C 269.338 155.633,268.654 156.307,268.822 156.475 C 268.886 156.539,268.834 156.591,268.705 156.591 C 268.576 156.591,268.471 156.727,268.471 156.892 C 268.471 157.058,268.390 157.193,268.290 157.193 C 268.190 157.193,267.860 157.622,267.556 158.145 C 267.252 158.669,266.883 159.170,266.735 159.258 C 266.587 159.346,266.466 159.549,266.466 159.709 C 266.466 159.869,266.391 160.000,266.300 160.000 C 266.208 160.000,266.005 160.248,265.849 160.551 C 265.692 160.855,265.519 161.148,265.463 161.203 C 265.201 161.461,264.261 162.795,264.261 162.908 C 264.261 162.979,264.148 163.154,264.010 163.298 C 263.737 163.583,263.638 163.724,262.451 165.514 C 262.012 166.175,261.518 166.893,261.353 167.108 C 261.188 167.324,261.053 167.566,261.053 167.647 C 261.053 167.728,260.781 168.092,260.450 168.454 C 260.119 168.817,259.792 169.290,259.724 169.504 C 259.656 169.719,259.520 169.991,259.421 170.110 C 258.850 170.799,257.898 172.181,257.786 172.481 C 257.715 172.674,257.570 172.832,257.463 172.832 C 257.357 172.832,257.208 173.028,257.132 173.268 C 256.983 173.736,256.746 174.071,256.190 174.595 C 255.997 174.777,255.840 175.035,255.840 175.168 C 255.840 175.301,255.727 175.529,255.589 175.675 C 255.324 175.955,254.342 177.337,253.835 178.143 C 253.669 178.406,252.970 179.444,252.281 180.450 C 251.591 181.456,251.028 182.355,251.028 182.447 C 251.028 182.539,250.892 182.666,250.727 182.729 C 250.561 182.793,250.426 182.983,250.426 183.152 C 250.426 183.320,250.342 183.459,250.239 183.459 C 250.136 183.459,249.998 183.628,249.932 183.836 C 249.867 184.043,249.657 184.396,249.468 184.619 C 249.278 184.843,248.987 185.225,248.822 185.468 C 248.657 185.712,248.379 186.104,248.205 186.339 C 248.030 186.574,247.830 186.925,247.760 187.118 C 247.689 187.311,247.539 187.469,247.425 187.469 C 247.311 187.469,247.218 187.563,247.218 187.677 C 247.218 187.942,246.397 189.121,246.065 189.333 C 245.927 189.421,245.815 189.583,245.815 189.692 C 245.815 189.904,245.023 191.097,244.749 191.298 C 244.659 191.364,244.472 191.635,244.333 191.900 C 243.800 192.918,243.493 193.374,243.058 193.795 C 242.810 194.035,242.607 194.291,242.607 194.363 C 242.607 194.527,241.591 196.099,241.257 196.452 C 240.897 196.832,239.599 198.813,239.599 198.982 C 239.599 199.062,239.486 199.252,239.348 199.406 C 238.345 200.524,238.349 200.532,239.843 200.461 C 241.186 200.396,241.025 200.520,242.259 198.615 C 242.395 198.405,242.664 198.092,242.857 197.919 C 243.050 197.746,243.214 197.512,243.221 197.399 C 243.229 197.286,243.636 196.652,244.126 195.990 C 244.617 195.328,245.097 194.603,245.195 194.378 C 245.292 194.153,245.516 193.848,245.693 193.702 C 245.870 193.555,246.015 193.318,246.015 193.175 C 246.015 193.032,246.083 192.886,246.165 192.849 C 246.248 192.812,246.586 192.376,246.917 191.880 C 247.248 191.383,247.609 190.868,247.719 190.734 C 247.830 190.600,248.016 190.373,248.134 190.229 C 248.252 190.086,248.599 189.542,248.905 189.019 C 249.211 188.497,249.543 188.070,249.643 188.070 C 249.743 188.070,249.825 187.949,249.825 187.800 C 249.825 187.652,250.003 187.313,250.222 187.048 C 250.440 186.783,250.693 186.476,250.783 186.366 C 250.874 186.256,251.003 186.030,251.070 185.865 C 251.137 185.699,251.832 184.662,252.613 183.559 C 253.394 182.456,254.034 181.436,254.034 181.291 C 254.035 181.147,254.116 181.079,254.215 181.140 C 254.313 181.201,254.449 181.109,254.515 180.935 C 254.624 180.651,255.904 178.640,256.290 178.145 C 257.021 177.211,257.796 176.078,257.903 175.789 C 257.974 175.596,258.126 175.439,258.239 175.439 C 258.353 175.439,258.446 175.317,258.446 175.169 C 258.446 175.021,258.627 174.736,258.847 174.536 C 259.068 174.337,259.248 174.105,259.248 174.021 C 259.248 173.937,259.902 172.890,260.702 171.696 C 262.251 169.381,262.253 169.378,262.861 168.641 C 263.079 168.376,263.258 168.035,263.258 167.883 C 263.258 167.731,263.393 167.555,263.559 167.491 C 263.724 167.428,263.860 167.247,263.860 167.090 C 263.860 166.933,263.995 166.753,264.160 166.689 C 264.326 166.626,264.461 166.462,264.461 166.325 C 264.461 166.188,264.642 165.868,264.862 165.614 C 265.083 165.360,265.263 165.089,265.263 165.013 C 265.263 164.936,265.442 164.657,265.660 164.392 C 266.287 163.632,266.319 163.586,267.268 162.105 C 267.763 161.333,268.323 160.530,268.513 160.321 C 268.703 160.111,268.817 159.872,268.766 159.790 C 268.715 159.708,268.822 159.584,269.002 159.515 C 269.183 159.446,269.278 159.336,269.214 159.272 C 269.150 159.208,269.317 158.935,269.586 158.666 C 269.855 158.397,270.075 158.043,270.075 157.879 C 270.075 157.715,270.202 157.533,270.356 157.474 C 270.590 157.384,270.755 157.084,270.952 156.391 C 271.057 156.022,271.644 155.418,271.779 155.540 C 271.870 155.622,271.891 155.542,271.827 155.363 C 271.763 155.183,271.816 154.922,271.945 154.782 C 272.131 154.581,272.102 154.555,271.813 154.657 C 271.611 154.729,271.403 154.787,271.350 154.787 C 271.298 154.787,271.319 154.891,271.398 155.018 C 271.487 155.163,271.453 155.195,271.306 155.105 C 271.177 155.025,271.115 154.889,271.168 154.803 C 271.222 154.716,271.140 154.474,270.986 154.265 C 270.747 153.939,270.749 153.839,270.994 153.567 C 271.242 153.291,271.240 153.250,270.978 153.250 C 270.812 153.250,270.666 153.393,270.653 153.567 " stroke="none" fill="#6db86a" fill-rule="evenodd"/><path id="path2" d="M271.786 0.451 C 271.860 0.699,272.040 0.998,272.187 1.115 C 272.334 1.232,272.515 1.571,272.590 1.867 C 272.664 2.163,272.806 2.406,272.904 2.406 C 273.002 2.406,273.083 2.544,273.083 2.713 C 273.083 2.882,273.210 3.069,273.365 3.129 C 273.521 3.188,273.701 3.448,273.765 3.705 C 273.830 3.962,274.199 4.653,274.586 5.240 C 274.972 5.827,275.288 6.421,275.288 6.562 C 275.288 6.702,275.377 6.817,275.486 6.817 C 275.595 6.817,275.819 7.110,275.983 7.469 C 276.389 8.353,276.743 8.891,277.043 9.083 C 277.180 9.171,277.293 9.374,277.293 9.534 C 277.293 9.694,277.375 9.825,277.474 9.825 C 277.574 9.825,277.749 10.095,277.865 10.426 C 277.980 10.757,278.150 11.028,278.241 11.028 C 278.333 11.028,278.519 11.276,278.655 11.579 C 279.062 12.488,279.427 13.037,279.547 12.918 C 279.609 12.856,279.763 13.119,279.889 13.503 C 280.016 13.886,280.251 14.250,280.411 14.312 C 280.571 14.373,280.702 14.552,280.702 14.709 C 280.702 14.866,280.837 15.047,281.003 15.110 C 281.168 15.174,281.303 15.364,281.303 15.533 C 281.303 15.701,281.385 15.840,281.484 15.840 C 281.584 15.840,281.759 16.110,281.875 16.441 C 281.990 16.772,282.179 17.043,282.295 17.043 C 282.411 17.043,282.506 17.158,282.506 17.299 C 282.506 17.440,282.687 17.709,282.907 17.898 C 283.128 18.087,283.308 18.378,283.308 18.544 C 283.308 18.711,283.401 18.847,283.514 18.847 C 283.627 18.847,283.805 19.073,283.910 19.348 C 284.015 19.624,284.187 19.850,284.292 19.850 C 284.398 19.850,284.541 20.029,284.611 20.248 C 284.680 20.467,284.992 20.928,285.305 21.272 C 286.212 22.271,286.438 22.566,286.575 22.923 C 286.646 23.107,286.791 23.258,286.897 23.258 C 287.004 23.258,287.151 23.448,287.224 23.679 C 287.361 24.110,287.485 24.276,288.525 25.420 C 288.854 25.783,289.123 26.167,289.123 26.274 C 289.123 26.381,289.348 26.665,289.624 26.905 C 289.900 27.144,290.125 27.427,290.125 27.532 C 290.125 27.637,290.328 27.916,290.576 28.150 C 290.825 28.385,291.293 28.937,291.618 29.376 C 291.943 29.816,292.326 30.248,292.470 30.336 C 292.614 30.424,292.732 30.579,292.732 30.680 C 292.732 30.851,293.174 31.384,294.577 32.907 C 294.875 33.231,295.323 33.782,295.572 34.132 C 296.037 34.785,296.835 35.669,299.198 38.145 C 299.942 38.925,300.551 39.634,300.551 39.721 C 300.551 39.898,312.936 52.331,313.113 52.331 C 313.261 52.331,313.998 53.003,315.148 54.185 C 315.656 54.709,316.162 55.138,316.270 55.138 C 316.378 55.138,316.878 55.578,317.381 56.116 C 317.884 56.655,318.484 57.152,318.715 57.222 C 318.945 57.293,319.253 57.573,319.398 57.845 C 319.544 58.117,319.843 58.396,320.062 58.466 C 320.281 58.535,320.845 58.988,321.315 59.472 C 321.785 59.955,322.245 60.352,322.338 60.354 C 322.431 60.356,322.719 60.582,322.978 60.856 C 323.238 61.129,323.554 61.357,323.680 61.362 C 323.806 61.367,324.131 61.637,324.402 61.963 C 324.672 62.290,324.968 62.556,325.060 62.556 C 325.152 62.556,325.481 62.817,325.792 63.135 C 326.104 63.454,326.543 63.773,326.770 63.845 C 326.996 63.916,327.232 64.107,327.293 64.268 C 327.355 64.429,327.502 64.561,327.620 64.561 C 327.737 64.561,328.081 64.815,328.383 65.124 C 328.686 65.434,329.089 65.747,329.279 65.820 C 329.469 65.893,329.624 66.039,329.624 66.146 C 329.624 66.252,329.813 66.399,330.045 66.472 C 330.276 66.546,330.615 66.738,330.797 66.900 C 331.834 67.820,332.572 68.381,332.882 68.483 C 333.075 68.546,333.233 68.672,333.233 68.761 C 333.233 68.851,333.503 69.035,333.832 69.172 C 334.161 69.308,334.382 69.500,334.321 69.597 C 334.261 69.695,334.339 69.774,334.494 69.774 C 334.649 69.774,334.993 69.953,335.258 70.172 C 335.523 70.390,335.835 70.649,335.952 70.746 C 336.070 70.844,336.384 71.040,336.650 71.182 C 336.917 71.325,337.246 71.540,337.382 71.661 C 338.034 72.236,338.244 72.381,338.428 72.381 C 338.537 72.381,338.699 72.494,338.787 72.632 C 338.875 72.770,339.218 73.018,339.549 73.183 C 339.880 73.349,340.270 73.596,340.415 73.734 C 340.561 73.872,340.800 73.985,340.945 73.985 C 341.091 73.985,341.262 74.120,341.326 74.286 C 341.389 74.451,341.570 74.586,341.727 74.586 C 341.884 74.586,342.064 74.722,342.128 74.887 C 342.191 75.053,342.367 75.188,342.519 75.188 C 342.671 75.188,343.004 75.368,343.258 75.589 C 343.512 75.810,343.842 75.990,343.991 75.990 C 344.139 75.990,344.261 76.078,344.261 76.187 C 344.261 76.295,344.486 76.440,344.762 76.509 C 345.038 76.578,345.263 76.710,345.263 76.803 C 345.263 76.960,345.656 77.212,346.867 77.831 C 347.143 77.972,347.441 78.201,347.529 78.342 C 347.617 78.482,347.820 78.596,347.980 78.596 C 348.140 78.596,348.271 78.669,348.271 78.757 C 348.271 78.845,348.586 79.031,348.972 79.171 C 349.358 79.310,349.674 79.509,349.674 79.612 C 349.674 79.715,349.803 79.799,349.961 79.799 C 350.118 79.799,350.367 79.912,350.514 80.050 C 350.660 80.188,351.318 80.571,351.975 80.902 C 352.632 81.233,353.291 81.617,353.441 81.754 C 353.591 81.892,353.842 82.005,353.999 82.005 C 354.157 82.005,354.286 82.094,354.286 82.202 C 354.286 82.310,354.511 82.455,354.787 82.524 C 355.063 82.593,355.288 82.723,355.288 82.813 C 355.288 82.903,355.624 83.087,356.035 83.223 C 356.445 83.358,356.893 83.568,357.030 83.689 C 357.698 84.280,357.899 84.404,358.379 84.525 C 358.664 84.596,358.897 84.724,358.897 84.808 C 358.897 84.892,359.303 85.074,359.799 85.213 C 360.296 85.352,360.702 85.544,360.702 85.640 C 360.702 85.736,360.831 85.815,360.988 85.815 C 361.146 85.815,361.394 85.932,361.540 86.077 C 361.685 86.221,362.346 86.604,363.008 86.929 C 363.669 87.253,364.241 87.586,364.277 87.669 C 364.314 87.752,364.449 87.823,364.578 87.826 C 364.707 87.830,365.173 88.007,365.614 88.221 C 366.055 88.434,366.529 88.611,366.667 88.615 C 366.805 88.618,366.917 88.700,366.917 88.796 C 366.917 88.892,367.323 89.084,367.820 89.223 C 368.316 89.362,368.722 89.552,368.722 89.646 C 368.722 89.740,368.947 89.874,369.223 89.943 C 369.499 90.012,369.724 90.142,369.724 90.231 C 369.724 90.392,370.887 90.739,371.178 90.665 C 371.261 90.644,371.328 90.713,371.328 90.819 C 371.328 90.925,371.689 91.120,372.130 91.252 C 372.571 91.384,372.932 91.558,372.932 91.638 C 372.932 91.719,373.248 91.844,373.634 91.917 C 374.020 91.989,374.336 92.127,374.336 92.224 C 374.336 92.320,374.607 92.459,374.937 92.531 C 375.268 92.604,375.539 92.729,375.539 92.810 C 375.539 92.891,375.990 93.072,376.541 93.214 C 377.093 93.355,377.544 93.542,377.544 93.630 C 377.544 93.718,377.860 93.849,378.246 93.922 C 378.632 93.994,378.947 94.129,378.947 94.222 C 378.947 94.315,379.263 94.451,379.649 94.523 C 380.035 94.596,380.351 94.730,380.351 94.821 C 380.351 94.913,380.892 95.108,381.554 95.254 C 382.216 95.401,382.757 95.589,382.757 95.671 C 382.757 95.754,383.073 95.881,383.459 95.953 C 383.845 96.025,384.160 96.155,384.160 96.241 C 384.160 96.326,384.476 96.456,384.862 96.528 C 385.248 96.601,385.564 96.732,385.564 96.819 C 385.564 96.907,386.060 97.090,386.667 97.226 C 387.273 97.361,387.769 97.546,387.769 97.636 C 387.769 97.726,388.175 97.860,388.672 97.934 C 389.168 98.009,389.574 98.144,389.574 98.236 C 389.574 98.327,389.912 98.465,390.326 98.542 C 390.739 98.619,391.168 98.755,391.278 98.843 C 391.388 98.931,391.997 99.118,392.632 99.258 C 393.266 99.398,393.784 99.578,393.784 99.658 C 393.784 99.738,394.190 99.865,394.687 99.939 C 395.183 100.014,395.589 100.149,395.589 100.241 C 395.589 100.332,395.927 100.470,396.341 100.547 C 396.754 100.624,397.183 100.759,397.293 100.847 C 397.480 100.995,399.382 101.454,399.809 101.454 C 399.929 101.454,400.000 82.660,400.000 50.727 L 400.000 0.000 335.826 0.000 L 271.652 0.000 271.786 0.451 M288.722 56.624 C 288.722 56.765,288.496 57.142,288.221 57.463 C 287.945 57.783,287.720 58.158,287.720 58.296 C 287.719 58.434,287.639 58.546,287.541 58.546 C 287.442 58.546,287.304 58.776,287.234 59.056 C 287.164 59.336,287.018 59.511,286.911 59.445 C 286.804 59.379,286.717 59.466,286.717 59.639 C 286.717 59.812,286.536 60.108,286.316 60.297 C 286.095 60.486,285.915 60.756,285.915 60.897 C 285.915 61.038,285.837 61.153,285.742 61.153 C 285.646 61.153,285.308 61.536,284.990 62.005 C 284.671 62.474,284.348 62.886,284.272 62.920 C 284.195 62.955,284.174 63.090,284.224 63.221 C 284.274 63.352,284.066 63.727,283.761 64.055 C 283.457 64.384,283.208 64.702,283.208 64.762 C 283.208 64.866,282.946 65.201,282.342 65.872 C 282.196 66.033,282.151 66.167,282.241 66.168 C 282.332 66.170,282.271 66.257,282.105 66.362 C 281.940 66.466,281.793 66.645,281.779 66.760 C 281.766 66.874,281.743 67.063,281.729 67.180 C 281.716 67.297,281.627 67.344,281.532 67.286 C 281.438 67.227,281.153 67.583,280.899 68.076 C 280.646 68.569,280.360 68.972,280.264 68.972 C 280.169 68.972,280.005 69.198,279.900 69.474 C 279.795 69.749,279.618 69.975,279.508 69.975 C 279.397 69.975,279.251 70.194,279.184 70.462 C 279.117 70.729,278.934 70.997,278.779 71.057 C 278.623 71.117,278.496 71.262,278.496 71.380 C 278.496 71.621,277.703 72.804,277.393 73.025 C 277.283 73.104,277.193 73.239,277.193 73.326 C 277.193 73.413,276.987 73.690,276.735 73.942 C 276.482 74.194,276.338 74.501,276.415 74.625 C 276.494 74.753,276.463 74.793,276.343 74.719 C 276.116 74.579,275.798 75.120,275.714 75.789 C 275.701 75.900,275.582 75.967,275.451 75.940 C 275.319 75.912,275.175 76.062,275.129 76.272 C 275.084 76.482,274.835 76.882,274.577 77.160 C 274.318 77.439,274.148 77.734,274.198 77.815 C 274.248 77.896,274.063 78.141,273.786 78.359 C 273.510 78.576,273.283 78.840,273.283 78.945 C 273.283 79.050,273.103 79.299,272.882 79.499 C 272.662 79.698,272.481 79.983,272.481 80.131 C 272.481 80.280,272.400 80.401,272.301 80.401 C 272.148 80.401,271.364 81.503,271.106 82.080 C 271.063 82.177,270.855 82.428,270.644 82.639 C 270.434 82.850,270.323 83.123,270.400 83.246 C 270.478 83.374,270.448 83.415,270.330 83.342 C 270.215 83.271,270.010 83.483,269.874 83.812 C 269.737 84.141,269.546 84.411,269.449 84.411 C 269.352 84.411,269.273 84.542,269.273 84.702 C 269.273 84.862,269.156 85.065,269.013 85.153 C 268.869 85.241,268.505 85.742,268.202 86.266 C 267.900 86.789,267.588 87.218,267.509 87.218 C 267.430 87.218,267.248 87.485,267.104 87.811 C 266.959 88.137,266.623 88.611,266.356 88.864 C 266.090 89.116,265.870 89.419,265.868 89.536 C 265.866 89.653,265.682 89.945,265.459 90.184 C 265.237 90.423,265.056 90.666,265.058 90.723 C 265.076 91.155,265.039 91.237,264.877 91.137 C 264.774 91.073,264.633 91.204,264.562 91.426 C 264.492 91.648,264.353 91.830,264.253 91.830 C 264.154 91.830,264.130 91.980,264.201 92.163 C 264.287 92.388,264.252 92.449,264.094 92.352 C 263.965 92.272,263.860 92.302,263.860 92.419 C 263.860 92.536,263.679 92.812,263.459 93.033 C 263.238 93.253,263.106 93.434,263.165 93.434 C 263.224 93.434,263.174 93.617,263.055 93.840 C 262.935 94.064,262.737 94.185,262.616 94.110 C 262.482 94.027,262.451 94.065,262.538 94.206 C 262.619 94.336,262.544 94.492,262.370 94.559 C 262.198 94.625,262.097 94.743,262.146 94.822 C 262.194 94.900,262.013 95.203,261.744 95.494 C 261.474 95.785,261.253 96.120,261.253 96.238 C 261.253 96.357,261.118 96.506,260.952 96.569 C 260.787 96.633,260.652 96.811,260.652 96.966 C 260.652 97.120,260.476 97.398,260.261 97.582 C 260.046 97.766,259.909 97.978,259.955 98.054 C 260.002 98.130,259.862 98.353,259.644 98.551 C 259.426 98.748,259.248 98.986,259.248 99.079 C 259.248 99.172,259.090 99.422,258.897 99.635 C 258.252 100.346,258.045 100.633,258.045 100.819 C 258.045 100.921,257.908 101.118,257.740 101.257 C 257.571 101.397,257.476 101.553,257.527 101.603 C 257.578 101.654,257.391 101.908,257.112 102.166 C 256.812 102.444,256.666 102.735,256.755 102.878 C 256.841 103.017,256.820 103.068,256.705 102.997 C 256.595 102.929,256.293 103.253,256.032 103.717 C 255.772 104.182,255.400 104.733,255.205 104.943 C 255.010 105.152,254.907 105.423,254.976 105.544 C 255.045 105.665,255.028 105.698,254.939 105.617 C 254.754 105.450,253.835 106.606,253.835 107.005 C 253.835 107.148,253.566 107.504,253.239 107.796 C 252.911 108.088,252.679 108.385,252.723 108.456 C 252.766 108.527,252.538 108.888,252.216 109.257 C 251.893 109.627,251.629 110.042,251.629 110.181 C 251.629 110.320,251.494 110.485,251.328 110.549 C 251.163 110.612,251.028 110.802,251.028 110.971 C 251.028 111.140,250.938 111.278,250.829 111.278 C 250.719 111.278,250.350 111.774,250.008 112.381 C 249.665 112.987,249.304 113.484,249.204 113.484 C 249.104 113.484,249.023 113.624,249.023 113.796 C 249.023 113.968,248.932 114.053,248.822 113.985 C 248.712 113.917,248.622 114.047,248.622 114.274 C 248.622 114.501,248.531 114.687,248.421 114.687 C 248.311 114.687,248.219 114.799,248.217 114.937 C 248.216 115.075,247.945 115.493,247.616 115.867 C 247.287 116.240,247.018 116.669,247.018 116.819 C 247.018 116.970,246.925 117.093,246.812 117.093 C 246.699 117.093,246.521 117.318,246.416 117.594 C 246.311 117.870,246.135 118.095,246.024 118.095 C 245.913 118.095,245.767 118.314,245.700 118.582 C 245.633 118.850,245.451 119.118,245.295 119.177 C 245.140 119.237,245.013 119.374,245.013 119.482 C 245.013 119.590,244.790 119.918,244.519 120.212 C 244.247 120.505,243.912 120.999,243.774 121.310 C 243.637 121.621,243.462 121.837,243.386 121.790 C 243.309 121.743,243.151 121.981,243.033 122.319 C 242.915 122.657,242.613 123.115,242.362 123.337 C 242.110 123.558,242.040 123.684,242.206 123.615 C 242.371 123.546,242.303 123.641,242.055 123.825 C 241.807 124.009,241.604 124.242,241.604 124.344 C 241.604 124.445,241.427 124.718,241.210 124.951 C 240.993 125.184,240.872 125.465,240.940 125.575 C 241.009 125.686,240.970 125.718,240.854 125.646 C 240.660 125.526,240.469 125.774,240.440 126.184 C 240.433 126.276,240.264 126.486,240.063 126.650 C 239.863 126.813,239.835 126.880,240.000 126.799 C 240.165 126.717,240.008 126.937,239.649 127.287 C 239.291 127.637,238.997 128.048,238.997 128.201 C 238.997 128.354,238.862 128.530,238.697 128.594 C 238.531 128.657,238.396 128.847,238.396 129.016 C 238.396 129.185,238.304 129.323,238.191 129.323 C 238.079 129.323,237.877 129.571,237.744 129.875 C 237.611 130.178,237.387 130.498,237.247 130.586 C 237.107 130.675,236.992 130.856,236.992 130.989 C 236.992 131.123,236.772 131.470,236.503 131.760 C 236.234 132.050,236.069 132.343,236.136 132.410 C 236.202 132.477,236.152 132.531,236.023 132.531 C 235.895 132.531,235.789 132.647,235.789 132.788 C 235.789 132.928,235.632 133.189,235.439 133.366 C 234.971 133.796,234.386 134.579,234.386 134.775 C 234.386 134.922,234.251 135.103,233.333 136.188 C 233.140 136.416,232.982 136.717,232.982 136.856 C 232.982 136.995,232.915 137.140,232.832 137.176 C 232.507 137.321,231.583 138.590,231.683 138.754 C 231.742 138.849,231.608 139.025,231.384 139.145 C 231.160 139.265,230.977 139.497,230.977 139.662 C 230.977 139.827,230.842 140.014,230.677 140.078 C 230.511 140.141,230.376 140.369,230.376 140.585 C 230.376 140.824,230.288 140.922,230.149 140.836 C 230.014 140.753,229.959 140.803,230.012 140.962 C 230.060 141.108,229.959 141.376,229.787 141.557 C 228.891 142.498,228.097 143.630,228.077 143.993 C 228.073 144.067,227.867 144.303,227.619 144.518 C 227.371 144.733,227.168 144.997,227.168 145.105 C 227.168 145.213,226.990 145.463,226.772 145.660 C 226.554 145.857,226.421 146.092,226.477 146.182 C 226.532 146.272,226.395 146.444,226.171 146.563 C 225.947 146.683,225.764 146.872,225.764 146.983 C 225.764 147.215,224.936 148.438,224.712 148.538 C 224.629 148.575,224.561 148.694,224.561 148.802 C 224.561 149.023,223.542 150.439,223.308 150.543 C 223.226 150.580,223.158 150.741,223.158 150.900 C 223.158 151.060,223.023 151.242,222.857 151.306 C 222.692 151.369,222.556 151.533,222.556 151.670 C 222.556 151.806,222.376 152.081,222.155 152.281 C 221.935 152.480,221.754 152.760,221.754 152.903 C 221.754 153.046,221.597 153.251,221.405 153.358 C 221.213 153.466,221.120 153.618,221.198 153.696 C 221.276 153.774,221.117 154.013,220.845 154.227 C 220.573 154.441,220.351 154.699,220.351 154.802 C 220.351 154.904,220.170 155.168,219.950 155.388 C 219.729 155.609,219.547 155.992,219.546 156.241 C 219.543 156.592,219.502 156.627,219.359 156.401 C 219.215 156.173,219.147 156.223,219.043 156.638 C 218.971 156.927,218.784 157.213,218.629 157.272 C 218.473 157.332,218.346 157.567,218.346 157.794 C 218.346 158.022,218.214 158.259,218.053 158.321 C 217.892 158.382,217.701 158.619,217.628 158.847 C 217.556 159.074,217.282 159.460,217.019 159.703 C 216.756 159.947,216.541 160.220,216.541 160.311 C 216.541 160.401,216.338 160.699,216.090 160.972 C 215.842 161.245,215.774 161.394,215.940 161.303 C 216.105 161.211,215.970 161.417,215.639 161.758 C 214.662 162.768,214.508 163.000,214.657 163.242 C 214.741 163.377,214.710 163.416,214.582 163.336 C 214.461 163.262,214.303 163.396,214.225 163.641 C 214.149 163.882,213.920 164.258,213.717 164.476 C 213.513 164.694,213.404 164.972,213.473 165.093 C 213.542 165.214,213.529 165.251,213.443 165.174 C 213.277 165.025,212.331 166.042,212.331 166.370 C 212.331 166.479,212.195 166.680,212.030 166.817 C 211.865 166.954,211.729 167.205,211.729 167.375 C 211.729 167.545,211.481 167.917,211.178 168.203 C 210.491 168.849,209.825 169.792,209.638 170.383 C 209.559 170.630,209.411 170.781,209.309 170.718 C 209.207 170.655,209.123 170.730,209.123 170.884 C 209.123 171.039,208.902 171.422,208.633 171.736 C 208.364 172.049,208.178 172.363,208.222 172.433 C 208.265 172.503,208.147 172.703,207.960 172.877 C 207.216 173.568,206.305 174.825,205.672 176.032 C 205.530 176.303,205.165 176.796,204.862 177.129 C 204.559 177.461,204.311 177.849,204.311 177.990 C 204.311 178.130,204.216 178.246,204.100 178.246 C 203.984 178.246,203.797 178.509,203.685 178.831 C 203.573 179.153,203.352 179.466,203.194 179.527 C 203.036 179.587,202.907 179.825,202.907 180.056 C 202.907 180.286,202.826 180.425,202.728 180.364 C 202.565 180.263,202.214 180.791,202.262 181.066 C 202.272 181.128,201.917 181.579,201.472 182.068 C 201.027 182.557,200.493 183.326,200.286 183.777 C 200.079 184.228,199.701 184.815,199.446 185.081 C 199.191 185.346,198.875 185.812,198.744 186.115 C 198.612 186.419,198.413 186.667,198.300 186.667 C 198.187 186.667,198.095 186.761,198.095 186.876 C 198.095 187.102,197.797 187.506,197.243 188.029 C 197.050 188.211,196.892 188.429,196.892 188.513 C 196.892 188.598,196.734 188.852,196.541 189.077 C 196.348 189.302,196.179 189.574,196.165 189.681 C 196.152 189.787,196.129 189.970,196.115 190.087 C 196.102 190.204,195.994 190.240,195.876 190.167 C 195.758 190.094,195.613 190.224,195.552 190.456 C 195.492 190.688,195.383 190.877,195.311 190.877 C 195.239 190.877,194.958 191.283,194.687 191.779 C 194.416 192.276,194.131 192.682,194.054 192.682 C 193.977 192.682,193.630 193.178,193.283 193.784 C 192.936 194.391,192.570 194.887,192.470 194.887 C 192.370 194.887,192.232 195.112,192.163 195.387 C 192.094 195.662,191.957 195.837,191.858 195.776 C 191.760 195.715,191.679 195.800,191.679 195.964 C 191.679 196.128,191.521 196.420,191.328 196.613 C 191.135 196.806,190.977 197.018,190.977 197.083 C 190.977 197.149,190.774 197.420,190.526 197.687 C 190.278 197.953,190.075 198.282,190.075 198.417 C 190.075 198.553,190.004 198.693,189.916 198.730 C 189.741 198.804,188.872 200.172,188.872 200.375 C 188.872 200.444,199.090 200.498,211.579 200.495 C 234.936 200.488,234.974 200.487,235.026 199.768 C 235.054 199.382,235.242 199.107,235.407 199.210 C 235.505 199.270,235.534 199.188,235.473 199.028 C 235.411 198.868,235.471 198.669,235.606 198.586 C 235.773 198.483,235.800 198.518,235.689 198.697 C 235.581 198.872,235.605 198.911,235.762 198.814 C 235.891 198.734,235.947 198.588,235.886 198.490 C 235.825 198.391,235.959 198.127,236.183 197.902 C 236.408 197.677,236.591 197.398,236.591 197.281 C 236.591 197.165,236.675 197.121,236.778 197.184 C 236.881 197.248,237.030 197.194,237.110 197.065 C 237.200 196.918,237.168 196.884,237.023 196.973 C 236.896 197.052,236.795 197.043,236.798 196.954 C 236.808 196.718,237.265 196.153,237.460 196.137 C 237.745 196.114,237.876 195.890,237.605 195.890 C 237.464 195.890,237.562 195.712,237.822 195.495 C 238.083 195.279,238.232 195.098,238.155 195.094 C 238.077 195.091,238.238 194.847,238.511 194.552 C 238.784 194.257,239.060 193.806,239.124 193.549 C 239.189 193.293,239.369 193.083,239.525 193.083 C 239.682 193.083,239.865 192.806,239.933 192.465 C 240.020 192.028,240.106 191.925,240.226 192.114 C 240.339 192.293,240.396 192.303,240.398 192.145 C 240.400 192.015,240.545 191.765,240.720 191.589 C 240.896 191.414,241.059 191.137,241.083 190.973 C 241.107 190.810,241.301 190.535,241.516 190.361 C 241.730 190.187,241.792 190.103,241.654 190.172 C 241.516 190.242,241.404 190.242,241.404 190.173 C 241.404 189.988,241.866 189.556,242.209 189.421 C 242.443 189.330,242.447 189.301,242.229 189.289 C 242.063 189.280,242.164 189.106,242.479 188.858 C 242.770 188.629,243.008 188.327,243.008 188.187 C 243.008 188.047,243.183 187.773,243.397 187.579 C 243.611 187.385,243.847 186.953,243.920 186.619 C 244.019 186.170,244.099 186.084,244.229 186.289 C 244.359 186.494,244.412 186.501,244.433 186.316 C 244.448 186.178,244.484 185.975,244.511 185.865 C 244.539 185.754,244.573 185.574,244.586 185.464 C 244.600 185.353,244.724 185.286,244.862 185.313 C 245.002 185.341,245.087 185.209,245.054 185.013 C 245.018 184.800,245.121 184.662,245.316 184.662 C 245.493 184.662,245.582 184.571,245.514 184.461 C 245.446 184.351,245.479 184.261,245.588 184.261 C 245.697 184.261,245.818 184.058,245.855 183.810 C 245.893 183.561,246.034 183.381,246.168 183.408 C 246.302 183.435,246.543 183.142,246.704 182.756 C 246.865 182.371,247.092 182.055,247.208 182.055 C 247.324 182.055,247.401 181.987,247.379 181.905 C 247.283 181.543,247.666 180.887,248.027 180.792 C 248.244 180.736,248.424 180.523,248.428 180.320 C 248.435 179.960,249.001 178.790,249.015 179.106 C 249.019 179.193,249.210 179.090,249.438 178.877 C 249.799 178.541,249.947 178.207,250.010 177.594 C 250.018 177.511,250.134 177.466,250.267 177.494 C 250.399 177.521,250.512 177.428,250.517 177.286 C 250.522 177.144,250.644 176.955,250.788 176.867 C 250.931 176.778,251.021 176.611,250.988 176.497 C 250.955 176.383,251.175 176.057,251.479 175.773 C 251.782 175.489,252.030 175.072,252.030 174.847 C 252.030 174.621,252.120 174.436,252.231 174.436 C 252.341 174.436,252.431 174.312,252.431 174.160 C 252.431 174.008,252.589 173.760,252.782 173.609 C 253.100 173.359,253.107 173.366,252.858 173.684 C 252.678 173.914,252.660 174.035,252.808 174.035 C 253.029 174.035,253.112 173.776,253.048 173.283 C 253.030 173.145,253.109 173.033,253.224 173.033 C 253.339 173.033,253.441 172.875,253.449 172.682 C 253.460 172.444,253.500 172.417,253.572 172.599 C 253.651 172.798,253.739 172.765,253.907 172.473 C 254.033 172.256,254.257 171.877,254.406 171.629 C 254.592 171.321,254.601 171.226,254.435 171.329 C 253.987 171.606,254.861 170.457,255.335 170.146 C 255.593 169.977,255.864 169.567,255.937 169.235 C 256.010 168.903,256.176 168.652,256.306 168.677 C 256.435 168.701,256.516 168.571,256.486 168.386 C 256.455 168.201,256.537 167.984,256.667 167.904 C 256.826 167.806,256.855 167.851,256.755 168.039 C 256.674 168.194,256.788 168.098,257.010 167.825 C 257.231 167.553,257.369 167.259,257.316 167.174 C 257.263 167.088,257.330 167.018,257.465 167.018 C 257.600 167.018,257.654 166.961,257.584 166.891 C 257.371 166.678,257.837 166.015,258.203 166.012 C 258.441 166.010,258.472 165.962,258.303 165.854 C 258.129 165.744,258.201 165.592,258.553 165.328 C 258.825 165.123,259.048 164.837,259.048 164.691 C 259.048 164.545,259.217 164.334,259.425 164.223 C 259.633 164.112,259.860 163.871,259.931 163.686 C 260.026 163.439,259.990 163.399,259.795 163.531 C 259.649 163.629,259.702 163.551,259.913 163.358 C 260.123 163.165,260.217 163.005,260.122 163.001 C 260.028 162.998,260.114 162.871,260.314 162.719 C 260.514 162.567,260.672 162.389,260.665 162.324 C 260.611 161.844,260.676 161.733,260.852 162.005 C 261.015 162.257,261.047 162.259,261.050 162.018 C 261.051 161.860,261.256 161.507,261.504 161.234 C 261.752 160.961,261.835 160.806,261.689 160.891 C 261.470 161.018,261.469 160.972,261.688 160.622 C 261.833 160.390,262.024 160.201,262.114 160.201 C 262.203 160.201,262.371 159.930,262.486 159.599 C 262.601 159.269,262.768 159.042,262.856 159.097 C 262.992 159.181,263.235 158.812,263.253 158.494 C 263.256 158.440,263.439 158.216,263.659 157.995 C 263.880 157.774,264.062 157.391,264.063 157.143 C 264.066 156.778,264.103 156.749,264.261 156.992 C 264.417 157.235,264.456 157.205,264.458 156.836 C 264.460 156.584,264.591 156.329,264.750 156.268 C 264.909 156.207,265.189 155.928,265.372 155.648 C 265.607 155.290,265.625 155.180,265.434 155.278 C 265.285 155.355,265.328 155.284,265.529 155.119 C 265.730 154.955,265.919 154.655,265.949 154.453 C 265.979 154.251,266.126 154.085,266.276 154.085 C 266.426 154.085,266.606 153.860,266.675 153.584 C 266.745 153.308,266.914 153.107,267.050 153.138 C 267.186 153.168,267.244 153.106,267.178 152.999 C 267.113 152.893,267.259 152.620,267.503 152.392 C 267.747 152.165,267.964 151.857,267.986 151.708 C 268.008 151.559,268.304 151.153,268.643 150.806 C 268.983 150.459,269.212 150.048,269.152 149.892 C 269.087 149.723,269.210 149.557,269.459 149.478 C 269.688 149.406,269.875 149.222,269.875 149.069 C 269.875 148.917,270.033 148.700,270.226 148.587 C 270.439 148.463,270.475 148.381,270.315 148.377 C 270.163 148.373,270.255 148.183,270.536 147.920 C 270.800 147.672,270.983 147.372,270.942 147.254 C 270.901 147.135,271.050 146.873,271.273 146.671 C 271.497 146.469,271.681 146.205,271.684 146.084 C 271.686 145.963,271.874 145.639,272.102 145.363 C 272.330 145.088,272.450 144.997,272.369 145.163 C 272.288 145.328,272.416 145.263,272.654 145.019 C 272.892 144.774,273.063 144.458,273.035 144.317 C 273.006 144.176,273.102 144.085,273.248 144.115 C 273.395 144.146,273.454 144.073,273.379 143.953 C 273.236 143.721,274.223 142.155,274.513 142.155 C 274.609 142.155,274.664 142.043,274.637 141.905 C 274.609 141.767,274.691 141.674,274.820 141.698 C 274.948 141.723,275.146 141.475,275.260 141.147 C 275.374 140.819,275.563 140.551,275.679 140.551 C 275.795 140.551,275.890 140.456,275.890 140.339 C 275.890 140.222,275.777 140.188,275.639 140.262 C 275.501 140.337,275.637 140.174,275.940 139.900 C 276.243 139.626,276.491 139.303,276.491 139.182 C 276.491 139.061,276.656 138.873,276.857 138.766 C 277.058 138.658,277.329 138.226,277.459 137.806 C 277.589 137.386,277.883 136.817,278.113 136.541 C 278.343 136.266,278.473 136.153,278.402 136.291 C 278.104 136.866,278.640 136.487,278.968 135.890 C 279.224 135.425,279.236 135.350,279.012 135.627 C 278.838 135.841,278.697 135.914,278.697 135.789 C 278.697 135.664,278.866 135.443,279.074 135.297 C 279.281 135.152,279.485 134.856,279.527 134.640 C 279.568 134.423,279.789 134.152,280.018 134.039 C 280.246 133.925,280.396 133.719,280.350 133.582 C 280.305 133.446,280.406 133.280,280.576 133.215 C 280.745 133.150,281.069 132.784,281.294 132.401 C 281.520 132.018,281.615 131.761,281.504 131.829 C 281.167 132.038,281.278 131.815,281.783 131.270 C 282.048 130.985,282.306 130.794,282.358 130.846 C 282.410 130.898,282.572 130.644,282.718 130.282 C 282.864 129.920,283.104 129.551,283.251 129.461 C 283.397 129.372,283.469 129.220,283.409 129.124 C 283.350 129.028,283.461 128.831,283.656 128.685 C 283.851 128.540,284.036 128.286,284.068 128.120 C 284.101 127.955,284.371 127.607,284.670 127.346 C 284.969 127.086,285.100 126.934,284.962 127.007 C 284.825 127.081,284.712 127.057,284.712 126.954 C 284.712 126.661,285.231 126.302,285.414 126.468 C 285.504 126.550,285.520 126.514,285.448 126.389 C 285.376 126.263,285.633 125.817,286.017 125.397 C 286.402 124.977,286.717 124.465,286.717 124.260 C 286.717 124.054,286.802 123.939,286.907 124.004 C 287.114 124.131,287.573 123.430,287.398 123.254 C 287.340 123.196,287.402 123.080,287.536 122.997 C 287.706 122.892,287.732 122.932,287.621 123.127 C 287.499 123.340,287.519 123.354,287.704 123.184 C 287.937 122.969,288.068 122.554,288.108 121.905 C 288.124 121.637,288.148 121.637,288.321 121.905 C 288.507 122.192,288.540 122.167,288.596 121.697 C 288.610 121.583,288.757 121.404,288.922 121.299 C 289.190 121.130,289.190 121.108,288.922 121.100 C 288.685 121.093,288.696 121.047,288.972 120.886 C 289.165 120.774,289.323 120.555,289.323 120.401 C 289.323 120.247,289.443 120.048,289.590 119.960 C 289.736 119.872,290.031 119.439,290.245 118.997 C 290.459 118.556,290.742 118.217,290.874 118.243 C 291.020 118.272,291.064 118.162,290.986 117.960 C 290.901 117.737,290.936 117.676,291.094 117.773 C 291.235 117.861,291.328 117.792,291.328 117.600 C 291.328 117.424,291.460 117.230,291.621 117.168 C 291.783 117.106,291.972 116.875,292.042 116.653 C 292.112 116.432,292.319 116.093,292.501 115.900 C 293.044 115.325,293.575 114.522,293.502 114.385 C 293.464 114.315,293.588 114.171,293.776 114.066 C 293.965 113.960,294.071 113.750,294.013 113.599 C 293.955 113.448,294.004 113.264,294.122 113.191 C 294.239 113.119,294.336 113.170,294.336 113.305 C 294.336 113.719,294.601 113.313,294.644 112.832 C 294.667 112.584,294.769 112.398,294.872 112.418 C 294.974 112.438,295.167 112.280,295.300 112.067 C 295.491 111.761,295.489 111.679,295.290 111.678 C 295.151 111.678,295.381 111.362,295.801 110.976 C 296.221 110.590,296.516 110.196,296.457 110.101 C 296.320 109.880,297.038 109.035,297.213 109.210 C 297.333 109.329,297.424 108.981,297.367 108.622 C 297.354 108.539,297.501 108.464,297.694 108.455 C 297.894 108.446,297.940 108.397,297.800 108.340 C 297.529 108.231,297.613 108.091,298.581 107.045 C 298.876 106.727,299.020 106.466,298.901 106.466 C 298.783 106.466,298.878 106.299,299.114 106.095 C 299.349 105.891,299.496 105.678,299.440 105.622 C 299.384 105.566,299.494 105.395,299.683 105.242 C 299.977 105.003,300.002 105.003,299.857 105.244 C 299.741 105.437,299.762 105.480,299.922 105.381 C 300.051 105.301,300.105 105.151,300.041 105.047 C 299.977 104.944,300.065 104.805,300.237 104.739 C 300.409 104.674,300.499 104.539,300.438 104.440 C 300.377 104.342,300.468 104.061,300.640 103.815 C 300.812 103.570,300.953 103.457,300.954 103.564 C 300.955 103.672,301.230 103.283,301.564 102.700 C 301.898 102.117,302.257 101.693,302.362 101.758 C 302.466 101.823,302.498 101.736,302.432 101.564 C 302.367 101.393,302.411 101.253,302.530 101.253 C 302.909 101.253,303.464 100.231,303.544 99.387 C 303.552 99.297,303.639 99.274,303.738 99.335 C 303.837 99.396,303.973 99.221,304.042 98.947 C 304.111 98.673,304.279 98.470,304.415 98.497 C 304.550 98.524,304.666 98.366,304.671 98.145 C 304.676 97.920,304.797 97.770,304.946 97.803 C 305.107 97.838,305.168 97.746,305.100 97.569 C 305.038 97.408,305.117 97.227,305.276 97.166 C 305.434 97.105,305.564 96.917,305.564 96.748 C 305.564 96.579,305.632 96.452,305.714 96.465 C 306.110 96.527,306.235 96.415,305.965 96.241 C 305.710 96.076,305.719 96.046,306.027 96.043 C 306.226 96.041,306.334 95.950,306.266 95.840 C 306.198 95.729,306.237 95.639,306.354 95.639 C 306.471 95.639,306.544 95.561,306.516 95.465 C 306.489 95.369,306.692 95.102,306.967 94.870 C 307.243 94.639,307.356 94.446,307.218 94.443 C 307.052 94.438,307.086 94.311,307.318 94.067 C 307.511 93.864,307.737 93.734,307.820 93.778 C 307.902 93.822,307.970 93.628,307.970 93.347 C 307.970 93.053,308.140 92.729,308.371 92.585 C 308.591 92.447,308.772 92.216,308.772 92.070 C 308.772 91.925,308.852 91.855,308.950 91.916 C 309.107 92.013,309.371 91.487,309.447 90.927 C 309.462 90.817,309.609 90.727,309.774 90.727 C 309.940 90.727,310.075 90.611,310.075 90.469 C 310.075 90.327,310.201 90.133,310.355 90.038 C 310.528 89.931,310.581 89.725,310.495 89.500 C 310.418 89.299,310.414 89.195,310.487 89.267 C 310.654 89.434,311.168 88.975,311.044 88.770 C 310.930 88.583,311.471 88.020,311.765 88.020 C 311.883 88.020,311.980 87.924,311.980 87.808 C 311.980 87.691,311.867 87.661,311.729 87.742 C 311.433 87.915,312.068 87.143,312.782 86.461 C 313.058 86.198,313.170 86.040,313.033 86.111 C 312.677 86.293,312.721 86.147,313.183 85.614 C 313.404 85.360,313.585 85.008,313.587 84.831 C 313.589 84.621,313.640 84.589,313.737 84.740 C 313.835 84.892,314.016 84.791,314.276 84.439 C 314.638 83.950,314.640 83.932,314.294 84.211 C 313.942 84.493,313.934 84.484,314.160 84.060 C 314.292 83.812,314.487 83.609,314.594 83.609 C 314.700 83.609,314.787 83.468,314.787 83.296 C 314.787 83.125,314.872 83.036,314.975 83.100 C 315.079 83.164,315.369 82.770,315.619 82.224 C 315.870 81.678,316.145 81.275,316.231 81.328 C 316.316 81.381,316.339 81.301,316.281 81.151 C 316.224 81.000,316.381 80.702,316.631 80.489 C 317.083 80.103,317.084 80.103,316.789 80.501 C 316.516 80.869,316.519 80.880,316.830 80.637 C 317.017 80.491,317.124 80.254,317.069 80.110 C 317.013 79.966,317.177 79.676,317.431 79.467 C 318.005 78.995,318.789 78.073,318.446 78.273 C 318.308 78.354,318.195 78.324,318.195 78.207 C 318.195 78.091,318.336 77.995,318.508 77.995 C 318.680 77.995,318.768 77.909,318.703 77.805 C 318.638 77.700,318.768 77.516,318.992 77.396 C 319.216 77.277,319.398 77.047,319.398 76.885 C 319.398 76.724,319.582 76.408,319.807 76.183 C 320.031 75.959,320.166 75.696,320.106 75.599 C 320.046 75.502,320.066 75.392,320.149 75.355 C 320.233 75.318,320.456 75.018,320.647 74.687 C 320.837 74.356,321.085 74.108,321.198 74.135 C 321.311 74.163,321.415 74.095,321.429 73.985 C 321.442 73.875,321.465 73.698,321.479 73.593 C 321.492 73.487,321.684 73.255,321.905 73.076 C 322.125 72.898,322.179 72.818,322.024 72.898 C 321.839 72.994,321.792 72.965,321.886 72.813 C 321.964 72.686,322.181 72.580,322.368 72.578 C 322.658 72.576,322.664 72.548,322.408 72.386 C 322.170 72.236,322.159 72.146,322.358 71.948 C 322.556 71.750,322.611 71.758,322.627 71.990 C 322.637 72.150,322.713 72.055,322.795 71.779 C 322.876 71.504,323.029 71.295,323.134 71.314 C 323.239 71.334,323.335 71.154,323.346 70.913 C 323.358 70.673,323.325 70.586,323.274 70.719 C 323.214 70.874,322.969 70.747,322.599 70.368 C 322.280 70.042,321.853 69.774,321.651 69.774 C 321.449 69.774,321.162 69.662,321.013 69.524 C 320.865 69.386,320.799 69.373,320.867 69.495 C 320.947 69.640,320.819 69.684,320.498 69.622 C 320.226 69.570,320.054 69.448,320.114 69.351 C 320.175 69.253,320.071 69.173,319.884 69.173 C 319.696 69.173,319.414 69.015,319.255 68.822 C 319.097 68.629,319.025 68.584,319.095 68.722 C 319.165 68.860,319.126 68.972,319.009 68.972 C 318.893 68.972,318.797 68.882,318.797 68.772 C 318.797 68.662,318.649 68.571,318.468 68.571 C 318.287 68.571,318.010 68.414,317.852 68.221 C 317.686 68.018,317.629 67.996,317.718 68.170 C 317.845 68.419,317.818 68.428,317.564 68.222 C 317.395 68.085,317.197 68.033,317.124 68.105 C 317.052 68.178,316.992 68.127,316.992 67.992 C 316.992 67.856,316.902 67.802,316.792 67.870 C 316.682 67.938,316.591 67.901,316.591 67.788 C 316.591 67.674,316.441 67.639,316.258 67.710 C 316.033 67.796,315.972 67.761,316.069 67.603 C 316.166 67.447,316.039 67.368,315.689 67.368 C 315.343 67.368,315.213 67.289,315.307 67.137 C 315.394 66.997,315.363 66.960,315.228 67.043 C 314.930 67.227,313.959 66.972,314.098 66.746 C 314.159 66.647,314.034 66.566,313.821 66.566 C 313.607 66.566,313.325 66.436,313.193 66.278 C 313.061 66.119,312.834 66.035,312.687 66.091 C 312.541 66.147,312.362 66.096,312.289 65.979 C 312.216 65.861,311.966 65.764,311.733 65.764 C 311.500 65.764,311.144 65.614,310.941 65.430 C 310.737 65.246,310.326 65.070,310.025 65.038 C 309.725 65.006,309.448 64.886,309.410 64.771 C 309.371 64.656,309.119 64.561,308.849 64.561 C 308.579 64.561,308.304 64.421,308.239 64.249 C 308.173 64.077,307.995 63.984,307.844 64.042 C 307.693 64.100,307.569 64.055,307.569 63.942 C 307.569 63.828,307.486 63.787,307.385 63.850 C 307.283 63.912,307.053 63.817,306.874 63.637 C 306.694 63.458,306.492 63.366,306.425 63.433 C 306.358 63.500,306.189 63.461,306.051 63.347 C 305.912 63.232,305.543 63.092,305.230 63.036 C 304.918 62.980,304.632 62.849,304.595 62.745 C 304.558 62.641,304.307 62.556,304.037 62.556 C 303.767 62.556,303.497 62.428,303.437 62.271 C 303.377 62.114,303.194 61.935,303.032 61.872 C 302.866 61.809,302.790 61.846,302.859 61.957 C 303.066 62.292,302.764 62.177,302.298 61.744 C 302.055 61.517,301.718 61.369,301.549 61.413 C 301.380 61.457,301.128 61.372,300.989 61.223 C 300.850 61.074,300.522 60.952,300.259 60.952 C 299.997 60.952,299.751 60.857,299.712 60.741 C 299.674 60.625,299.478 60.506,299.279 60.476 C 299.079 60.447,298.845 60.309,298.759 60.169 C 298.672 60.030,298.544 59.923,298.474 59.933 C 297.938 60.004,297.526 59.904,297.257 59.635 C 297.084 59.462,296.942 59.374,296.942 59.441 C 296.942 59.508,296.739 59.451,296.491 59.315 C 296.243 59.179,295.914 59.046,295.759 59.020 C 295.605 58.995,295.412 58.866,295.331 58.735 C 295.247 58.600,295.072 58.564,294.929 58.652 C 294.752 58.761,294.725 58.728,294.839 58.543 C 294.958 58.351,294.912 58.313,294.675 58.404 C 294.495 58.473,294.216 58.398,294.056 58.238 C 293.896 58.078,293.600 57.921,293.399 57.890 C 293.197 57.859,292.920 57.763,292.782 57.677 C 292.644 57.591,292.440 57.576,292.329 57.645 C 292.218 57.714,292.073 57.629,292.007 57.456 C 291.941 57.284,291.736 57.143,291.552 57.143 C 291.368 57.143,291.020 57.005,290.779 56.836 C 290.197 56.428,288.722 56.276,288.722 56.624 M326.357 86.905 C 326.169 87.093,326.015 87.413,326.015 87.617 C 326.015 87.820,325.940 88.017,325.848 88.053 C 325.639 88.137,324.612 90.378,324.612 90.751 C 324.612 90.903,324.524 91.028,324.416 91.028 C 324.204 91.028,323.521 92.412,323.302 93.289 C 323.227 93.587,323.087 93.784,322.992 93.725 C 322.897 93.666,322.761 93.847,322.691 94.127 C 322.621 94.407,322.460 94.638,322.334 94.640 C 322.192 94.642,322.207 94.707,322.373 94.812 C 322.588 94.949,322.578 95.006,322.323 95.104 C 322.148 95.171,322.005 95.409,322.005 95.633 C 322.005 95.857,321.933 96.040,321.845 96.040 C 321.667 96.040,321.095 97.448,321.167 97.709 C 321.192 97.800,321.120 97.817,321.007 97.747 C 320.894 97.678,320.795 97.693,320.787 97.783 C 320.722 98.487,320.545 98.963,320.295 99.103 C 320.133 99.194,320.000 99.449,320.000 99.671 C 320.000 99.925,319.914 100.021,319.768 99.930 C 319.609 99.832,319.571 99.923,319.649 100.220 C 319.711 100.457,319.702 100.615,319.629 100.570 C 319.555 100.524,319.276 100.975,319.008 101.572 C 318.739 102.169,318.441 102.657,318.344 102.657 C 318.248 102.657,318.226 102.837,318.296 103.058 C 318.366 103.278,318.346 103.459,318.252 103.459 C 318.158 103.459,317.922 103.729,317.726 104.060 C 317.531 104.391,317.427 104.662,317.496 104.662 C 317.565 104.662,317.435 104.924,317.207 105.244 C 316.979 105.564,316.792 105.919,316.792 106.032 C 316.792 106.145,316.657 106.372,316.492 106.537 C 316.236 106.793,316.064 107.284,316.005 107.932 C 315.997 108.021,315.901 108.039,315.792 107.971 C 315.676 107.899,315.646 107.986,315.721 108.180 C 315.791 108.363,315.750 108.572,315.630 108.646 C 315.510 108.720,315.195 109.251,314.929 109.825 C 314.662 110.399,314.378 110.803,314.296 110.723 C 314.214 110.642,314.174 110.712,314.206 110.877 C 314.299 111.358,313.977 112.099,313.739 111.952 C 313.615 111.875,313.579 111.911,313.657 112.035 C 313.730 112.155,313.699 112.310,313.587 112.379 C 313.475 112.448,313.383 112.670,313.383 112.873 C 313.383 113.075,313.257 113.289,313.102 113.348 C 312.947 113.408,312.759 113.733,312.685 114.072 C 312.610 114.410,312.486 114.687,312.409 114.687 C 312.226 114.687,311.717 115.915,311.763 116.245 C 311.783 116.385,311.659 116.640,311.489 116.811 C 311.318 116.982,311.178 117.256,311.178 117.420 C 311.178 117.584,311.095 117.667,310.994 117.604 C 310.892 117.541,310.746 117.784,310.668 118.144 C 310.590 118.503,310.445 118.849,310.346 118.912 C 309.955 119.162,309.981 119.939,310.383 120.044 C 310.600 120.101,310.777 120.220,310.777 120.308 C 310.777 120.397,311.048 120.529,311.378 120.602 C 311.709 120.674,311.980 120.802,311.980 120.886 C 311.980 120.971,312.341 121.147,312.782 121.280 C 313.223 121.412,313.584 121.612,313.584 121.724 C 313.584 121.836,313.668 121.877,313.771 121.813 C 313.873 121.750,314.014 121.789,314.083 121.901 C 314.152 122.014,314.390 122.105,314.610 122.105 C 314.865 122.105,314.958 122.191,314.866 122.340 C 314.769 122.498,314.830 122.532,315.055 122.446 C 315.238 122.376,315.388 122.406,315.388 122.513 C 315.388 122.619,315.524 122.707,315.689 122.707 C 315.855 122.707,315.990 122.777,315.990 122.863 C 315.990 122.950,316.392 123.139,316.884 123.284 C 317.376 123.429,317.883 123.675,318.011 123.829 C 318.140 123.984,318.414 124.110,318.621 124.110 C 318.828 124.110,318.997 124.201,318.997 124.311 C 318.997 124.421,319.126 124.511,319.284 124.511 C 319.441 124.511,319.702 124.643,319.863 124.804 C 320.024 124.965,320.414 125.144,320.729 125.201 C 321.044 125.258,321.414 125.458,321.551 125.645 C 321.688 125.833,321.856 125.930,321.925 125.861 C 321.993 125.793,322.398 125.958,322.825 126.227 C 323.252 126.496,323.693 126.717,323.806 126.717 C 323.918 126.717,324.010 126.793,324.010 126.886 C 324.010 126.978,324.371 127.162,324.812 127.295 C 325.253 127.427,325.614 127.617,325.614 127.718 C 325.614 127.819,325.927 127.960,326.309 128.032 C 326.691 128.104,327.108 128.288,327.235 128.442 C 327.363 128.596,327.592 128.722,327.744 128.722 C 327.896 128.722,328.020 128.798,328.020 128.891 C 328.020 128.983,328.381 129.167,328.822 129.300 C 329.263 129.432,329.624 129.619,329.624 129.716 C 329.624 129.814,329.895 129.952,330.226 130.025 C 330.556 130.098,330.827 130.236,330.827 130.333 C 330.827 130.429,331.143 130.567,331.529 130.640 C 331.915 130.712,332.231 130.843,332.231 130.930 C 332.231 131.095,333.420 131.608,333.684 131.558 C 333.767 131.542,333.835 131.619,333.835 131.729 C 333.835 131.840,333.959 131.930,334.111 131.930 C 334.263 131.930,334.502 132.068,334.642 132.237 C 334.782 132.406,334.997 132.509,335.118 132.466 C 335.239 132.423,335.586 132.562,335.890 132.774 C 336.193 132.986,336.442 133.086,336.444 132.996 C 336.446 132.906,336.533 132.967,336.637 133.133 C 336.824 133.429,336.892 133.456,337.594 133.512 C 337.874 133.534,337.889 133.575,337.668 133.716 C 337.464 133.845,337.556 133.928,338.018 134.029 C 338.364 134.105,338.647 134.261,338.647 134.375 C 338.647 134.490,338.821 134.537,339.035 134.482 C 339.264 134.422,339.468 134.499,339.535 134.671 C 339.596 134.832,339.732 134.910,339.836 134.846 C 339.940 134.781,340.119 134.888,340.232 135.084 C 340.361 135.304,340.441 135.338,340.445 135.174 C 340.450 134.954,340.501 134.954,340.745 135.174 C 341.452 135.811,341.662 135.944,342.063 136.005 C 342.297 136.041,342.550 136.153,342.624 136.255 C 342.825 136.533,344.531 137.418,344.373 137.163 C 344.298 137.042,344.323 136.942,344.428 136.942 C 344.533 136.942,344.676 137.091,344.745 137.272 C 344.815 137.453,344.929 137.544,344.999 137.474 C 345.069 137.404,345.243 137.444,345.386 137.563 C 345.719 137.839,347.103 138.546,347.311 138.546 C 347.398 138.546,347.644 138.722,347.858 138.936 C 348.073 139.151,348.569 139.386,348.961 139.460 C 349.353 139.533,349.674 139.659,349.674 139.739 C 349.674 139.819,350.170 140.094,350.777 140.351 C 351.383 140.607,351.880 140.893,351.880 140.985 C 351.880 141.077,352.055 141.153,352.269 141.153 C 352.483 141.153,352.714 141.243,352.782 141.353 C 352.850 141.464,353.086 141.554,353.307 141.554 C 353.527 141.554,353.652 141.644,353.584 141.754 C 353.516 141.865,353.638 141.955,353.856 141.955 C 354.439 141.955,354.901 142.171,354.771 142.382 C 354.708 142.483,354.731 142.550,354.822 142.530 C 355.052 142.478,355.764 142.791,355.910 143.006 C 355.976 143.104,356.202 143.217,356.411 143.256 C 356.621 143.296,356.815 143.346,356.842 143.368 C 356.870 143.390,356.986 143.420,357.100 143.434 C 357.214 143.447,357.382 143.579,357.473 143.726 C 357.564 143.874,357.696 143.986,357.767 143.977 C 358.120 143.930,358.290 143.981,358.541 144.211 C 359.045 144.672,360.133 145.166,360.349 145.033 C 360.476 144.955,360.505 144.995,360.420 145.132 C 360.330 145.277,360.425 145.363,360.676 145.363 C 360.895 145.363,361.205 145.494,361.365 145.654 C 361.525 145.814,361.892 146.004,362.181 146.077 C 362.470 146.150,362.707 146.289,362.707 146.388 C 362.707 146.486,362.851 146.566,363.027 146.566 C 363.203 146.566,363.592 146.741,363.891 146.954 C 364.190 147.167,364.678 147.403,364.975 147.477 C 365.271 147.552,365.514 147.686,365.514 147.775 C 365.514 147.865,365.784 147.998,366.115 148.070 C 366.446 148.143,366.717 148.271,366.717 148.355 C 366.717 148.439,367.078 148.626,367.519 148.772 C 367.960 148.918,368.321 149.105,368.321 149.189 C 368.321 149.273,368.591 149.401,368.922 149.474 C 369.253 149.546,369.524 149.679,369.524 149.769 C 369.524 149.858,369.771 149.994,370.073 150.069 C 370.375 150.145,370.669 150.269,370.725 150.344 C 370.901 150.580,373.091 151.579,373.433 151.579 C 373.612 151.579,373.707 151.662,373.644 151.763 C 373.582 151.864,373.802 152.007,374.134 152.080 C 374.465 152.153,374.737 152.294,374.737 152.393 C 374.737 152.492,374.962 152.630,375.238 152.700 C 375.514 152.769,375.739 152.894,375.739 152.978 C 375.739 153.062,376.145 153.245,376.642 153.383 C 377.138 153.522,377.544 153.707,377.544 153.795 C 377.544 153.882,377.815 154.013,378.145 154.085 C 378.476 154.158,378.747 154.299,378.747 154.398 C 378.747 154.497,378.972 154.635,379.248 154.705 C 379.524 154.774,379.749 154.921,379.749 155.033 C 379.749 155.144,379.924 155.189,380.137 155.133 C 380.362 155.075,380.571 155.149,380.632 155.310 C 380.691 155.464,380.892 155.589,381.078 155.589 C 381.264 155.589,381.733 155.831,382.121 156.127 C 382.508 156.422,382.758 156.535,382.676 156.377 C 382.594 156.219,382.656 156.248,382.814 156.441 C 382.972 156.634,383.300 156.792,383.543 156.792 C 383.785 156.792,383.934 156.873,383.873 156.971 C 383.812 157.070,383.901 157.204,384.072 157.270 C 384.281 157.350,384.335 157.308,384.237 157.141 C 384.157 157.004,384.272 157.050,384.493 157.243 C 384.713 157.436,385.050 157.594,385.241 157.594 C 385.431 157.594,385.538 157.675,385.477 157.773 C 385.358 157.965,385.805 158.195,386.295 158.195 C 386.459 158.195,386.880 158.411,387.231 158.673 C 387.582 158.936,388.095 159.219,388.371 159.303 C 388.647 159.386,389.087 159.622,389.350 159.827 C 389.613 160.032,389.952 160.201,390.102 160.201 C 390.253 160.201,390.377 160.313,390.379 160.451 C 390.381 160.618,390.447 160.602,390.576 160.401 C 390.706 160.201,390.772 160.184,390.774 160.351 C 390.776 160.489,390.915 160.602,391.084 160.602 C 391.253 160.602,391.443 160.737,391.506 160.902 C 391.570 161.068,391.728 161.203,391.859 161.203 C 391.989 161.203,392.430 161.373,392.838 161.581 C 393.246 161.789,393.529 161.857,393.467 161.732 C 393.405 161.606,393.482 161.660,393.639 161.852 C 393.796 162.043,393.981 162.143,394.050 162.073 C 394.119 162.004,394.233 162.096,394.302 162.277 C 394.372 162.458,394.515 162.607,394.620 162.607 C 394.725 162.607,394.754 162.494,394.684 162.356 C 394.614 162.218,394.686 162.263,394.844 162.456 C 395.003 162.649,395.285 162.807,395.473 162.807 C 395.660 162.807,395.758 162.896,395.691 163.005 C 395.620 163.119,395.701 163.152,395.879 163.084 C 396.050 163.018,396.191 163.042,396.193 163.136 C 396.194 163.231,396.690 163.529,397.295 163.798 C 397.901 164.067,398.396 164.360,398.396 164.449 C 398.396 164.539,398.624 164.612,398.904 164.612 C 399.183 164.612,399.463 164.747,399.526 164.912 C 399.940 165.989,400.000 163.377,400.000 144.350 L 400.000 123.488 399.348 123.254 C 398.990 123.126,398.622 123.042,398.531 123.069 C 398.441 123.096,398.422 123.028,398.490 122.918 C 398.557 122.808,398.384 122.661,398.103 122.591 C 397.823 122.520,397.594 122.382,397.594 122.284 C 397.594 122.186,397.526 122.115,397.444 122.127 C 397.155 122.169,396.391 121.857,396.391 121.697 C 396.391 121.608,396.098 121.473,395.739 121.397 C 395.381 121.321,394.952 121.144,394.787 121.004 C 394.622 120.864,394.283 120.687,394.035 120.612 C 393.787 120.536,393.584 120.397,393.584 120.303 C 393.584 120.209,393.313 120.073,392.982 120.000 C 392.652 119.927,392.381 119.799,392.381 119.715 C 392.381 119.631,392.020 119.454,391.579 119.322 C 391.138 119.190,390.777 119.002,390.777 118.905 C 390.777 118.808,390.506 118.669,390.175 118.596 C 389.845 118.524,389.574 118.388,389.574 118.296 C 389.574 118.203,389.303 118.068,388.972 117.995 C 388.642 117.922,388.371 117.780,388.371 117.678 C 388.371 117.577,388.303 117.508,388.221 117.526 C 388.138 117.544,387.816 117.454,387.506 117.326 C 387.195 117.198,386.852 117.093,386.742 117.093 C 386.632 117.093,386.594 117.010,386.657 116.909 C 386.719 116.807,386.499 116.665,386.167 116.592 C 385.835 116.519,385.564 116.383,385.564 116.291 C 385.564 116.198,385.293 116.063,384.962 115.990 C 384.632 115.917,384.361 115.789,384.361 115.705 C 384.361 115.621,384.000 115.444,383.559 115.312 C 383.118 115.180,382.757 114.992,382.757 114.895 C 382.757 114.798,382.486 114.659,382.155 114.586 C 381.825 114.514,381.554 114.378,381.554 114.286 C 381.554 114.193,381.283 114.058,380.952 113.985 C 380.622 113.912,380.351 113.784,380.351 113.700 C 380.351 113.616,379.990 113.439,379.549 113.307 C 379.108 113.175,378.747 112.980,378.747 112.874 C 378.747 112.768,378.644 112.682,378.518 112.682 C 378.266 112.682,376.500 111.852,376.341 111.658 C 376.286 111.591,375.902 111.427,375.489 111.292 C 375.075 111.157,374.737 110.971,374.737 110.878 C 374.737 110.785,374.466 110.649,374.135 110.576 C 373.805 110.504,373.534 110.368,373.534 110.276 C 373.534 110.183,373.263 110.048,372.932 109.975 C 372.602 109.902,372.331 109.774,372.331 109.690 C 372.331 109.606,371.970 109.429,371.529 109.297 C 371.088 109.165,370.727 108.977,370.727 108.880 C 370.727 108.783,370.456 108.644,370.125 108.571 C 369.794 108.499,369.524 108.363,369.524 108.271 C 369.524 108.178,369.253 108.043,368.922 107.970 C 368.591 107.897,368.321 107.769,368.321 107.685 C 368.321 107.601,367.960 107.424,367.519 107.292 C 367.078 107.160,366.717 106.972,366.717 106.875 C 366.717 106.778,366.446 106.639,366.115 106.566 C 365.784 106.494,365.514 106.358,365.514 106.266 C 365.514 106.173,365.243 106.038,364.912 105.965 C 364.581 105.892,364.311 105.757,364.311 105.664 C 364.311 105.571,364.039 105.436,363.707 105.363 C 363.375 105.290,362.990 105.125,362.852 104.996 C 362.414 104.590,360.169 103.568,359.922 103.663 C 359.879 103.680,359.770 103.573,359.679 103.426 C 359.588 103.278,359.420 103.147,359.306 103.133 C 359.191 103.119,359.002 103.096,358.885 103.083 C 358.769 103.069,358.724 102.975,358.787 102.873 C 358.850 102.772,358.629 102.630,358.297 102.557 C 357.966 102.484,357.694 102.341,357.694 102.240 C 357.694 102.138,357.519 102.055,357.305 102.055 C 357.091 102.055,356.859 101.963,356.790 101.851 C 356.721 101.739,356.589 101.694,356.498 101.750 C 356.407 101.806,356.281 101.718,356.218 101.553 C 356.155 101.388,355.879 101.253,355.605 101.253 C 355.332 101.253,355.027 101.110,354.929 100.934 C 354.831 100.759,354.693 100.616,354.623 100.616 C 354.275 100.617,353.684 100.386,353.684 100.249 C 353.684 100.087,352.703 99.756,352.416 99.822 C 352.325 99.843,352.308 99.767,352.378 99.654 C 352.448 99.541,352.409 99.437,352.293 99.424 C 352.176 99.410,352.013 99.375,351.930 99.346 C 351.847 99.318,351.576 99.228,351.328 99.148 C 351.080 99.067,350.877 98.931,350.877 98.845 C 350.877 98.760,350.630 98.628,350.328 98.552 C 350.026 98.476,349.732 98.353,349.676 98.278 C 349.518 98.067,347.394 97.043,347.115 97.043 C 346.979 97.043,346.867 96.952,346.867 96.842 C 346.867 96.732,346.772 96.642,346.656 96.642 C 346.448 96.642,345.052 96.010,344.461 95.649 C 344.296 95.547,343.867 95.346,343.509 95.202 C 343.150 95.058,342.857 94.872,342.857 94.788 C 342.857 94.705,342.683 94.637,342.470 94.637 C 342.258 94.637,341.959 94.512,341.807 94.360 C 341.485 94.038,339.418 93.033,339.078 93.033 C 338.951 93.033,338.847 92.950,338.847 92.848 C 338.847 92.746,338.576 92.604,338.246 92.531 C 337.915 92.459,337.644 92.335,337.644 92.256 C 337.644 92.095,335.398 91.028,335.058 91.028 C 334.936 91.028,334.837 90.947,334.837 90.849 C 334.837 90.750,334.590 90.608,334.288 90.532 C 333.986 90.456,333.692 90.326,333.636 90.243 C 333.505 90.049,331.321 89.023,331.040 89.023 C 330.923 89.023,330.827 88.939,330.827 88.838 C 330.827 88.736,330.556 88.594,330.226 88.521 C 329.895 88.449,329.624 88.308,329.624 88.208 C 329.624 88.109,329.398 87.971,329.123 87.902 C 328.847 87.833,328.622 87.696,328.622 87.597 C 328.622 87.499,328.554 87.433,328.471 87.451 C 328.388 87.469,328.067 87.379,327.756 87.250 C 327.446 87.122,327.115 87.018,327.021 87.018 C 326.927 87.018,326.816 86.915,326.775 86.790 C 326.726 86.643,326.578 86.684,326.357 86.905 M399.672 183.759 C 399.608 183.925,399.464 184.060,399.351 184.060 C 399.239 184.060,398.432 184.782,397.558 185.664 C 396.684 186.546,395.896 187.268,395.808 187.268 C 395.719 187.268,395.408 187.556,395.117 187.908 C 394.825 188.260,394.583 188.463,394.579 188.359 C 394.575 188.255,394.443 188.396,394.286 188.672 C 394.128 188.947,393.996 189.107,393.992 189.027 C 393.985 188.891,392.816 189.986,389.234 193.480 C 388.440 194.254,387.691 194.887,387.568 194.887 C 387.445 194.887,387.401 194.977,387.469 195.088 C 387.537 195.198,387.474 195.289,387.330 195.290 C 386.913 195.293,385.460 196.757,385.771 196.861 C 385.917 196.910,386.308 196.645,386.641 196.273 C 386.974 195.900,387.386 195.594,387.558 195.592 C 387.729 195.591,387.959 195.386,388.068 195.138 C 388.176 194.890,388.339 194.687,388.428 194.687 C 388.517 194.687,388.800 194.461,389.055 194.185 C 389.311 193.910,389.602 193.684,389.703 193.684 C 389.804 193.684,390.468 193.098,391.178 192.381 C 391.888 191.664,392.630 191.078,392.826 191.078 C 393.049 191.078,393.183 190.927,393.183 190.677 C 393.183 190.409,393.317 190.276,393.584 190.276 C 393.805 190.276,393.985 190.146,393.985 189.989 C 393.985 189.831,394.278 189.496,394.637 189.246 C 394.995 188.995,395.573 188.484,395.920 188.112 C 396.457 187.536,396.613 187.466,396.960 187.652 C 397.563 187.975,398.396 187.927,398.396 187.569 C 398.396 187.404,398.261 187.268,398.095 187.268 C 397.930 187.268,397.794 187.376,397.794 187.509 C 397.794 187.689,397.737 187.692,397.566 187.521 C 397.395 187.350,397.466 187.140,397.848 186.686 C 398.128 186.353,398.405 185.964,398.462 185.822 C 398.690 185.256,398.992 186.201,399.020 187.569 C 399.036 188.341,399.114 191.003,399.192 193.484 L 399.335 197.995 399.360 193.784 C 399.387 189.109,399.590 186.160,399.814 187.168 C 399.888 187.499,399.939 186.799,399.928 185.614 C 399.909 183.432,399.879 183.218,399.672 183.759 M382.100 199.902 C 381.716 200.350,381.672 200.501,381.923 200.501 C 382.015 200.501,382.194 200.276,382.319 200.000 C 382.596 199.393,382.552 199.374,382.100 199.902 " stroke="none" fill="#0c1332" fill-rule="evenodd"/><path id="path3" d="M320.115 69.350 C 320.054 69.448,320.229 69.571,320.504 69.623 C 321.103 69.738,321.138 69.661,320.614 69.380 C 320.393 69.262,320.177 69.249,320.115 69.350 M322.906 70.704 C 323.138 70.936,323.171 71.094,323.020 71.245 C 322.903 71.363,322.807 71.548,322.807 71.657 C 322.807 71.767,322.934 71.682,323.090 71.470 C 323.386 71.064,323.195 70.376,322.786 70.376 C 322.671 70.376,322.725 70.524,322.906 70.704 M320.713 74.497 C 320.524 74.786,320.409 75.062,320.458 75.111 C 320.507 75.160,320.702 74.964,320.891 74.676 C 321.080 74.387,321.195 74.111,321.146 74.062 C 321.097 74.013,320.902 74.209,320.713 74.497 M316.779 80.251 C 316.027 81.206,315.920 81.418,316.261 81.287 C 316.421 81.226,316.603 81.024,316.665 80.838 C 316.727 80.653,316.927 80.298,317.110 80.050 C 317.621 79.356,317.359 79.516,316.779 80.251 M314.163 84.060 C 313.928 84.509,313.929 84.509,314.357 84.129 C 314.835 83.705,314.878 83.609,314.594 83.609 C 314.487 83.609,314.294 83.812,314.163 84.060 M311.896 87.375 L 311.511 87.920 312.046 87.434 C 312.609 86.923,312.678 86.813,312.431 86.823 C 312.348 86.827,312.107 87.075,311.896 87.375 M290.541 118.416 C 290.281 118.796,290.118 119.158,290.180 119.220 C 290.243 119.282,290.390 119.151,290.509 118.930 C 290.627 118.709,290.861 118.391,291.028 118.224 C 291.195 118.057,291.260 117.876,291.173 117.822 C 291.086 117.769,290.801 118.036,290.541 118.416 M285.043 126.449 C 284.839 126.722,284.719 126.991,284.776 127.049 C 284.833 127.106,285.035 126.916,285.224 126.628 C 285.670 125.947,285.526 125.804,285.043 126.449 M277.926 136.787 C 277.701 137.142,277.569 137.481,277.633 137.539 C 277.697 137.597,277.790 137.530,277.840 137.390 C 277.890 137.250,278.035 137.022,278.163 136.884 C 278.398 136.630,278.564 136.140,278.416 136.140 C 278.371 136.140,278.151 136.431,277.926 136.787 M273.623 143.208 C 273.236 143.787,272.969 144.306,273.029 144.361 C 273.089 144.416,273.178 144.347,273.228 144.207 C 273.278 144.067,273.424 143.840,273.552 143.702 C 273.852 143.379,274.537 142.155,274.418 142.155 C 274.368 142.155,274.011 142.629,273.623 143.208 M266.998 152.916 C 266.794 153.188,266.669 153.453,266.720 153.504 C 266.771 153.555,266.968 153.360,267.157 153.072 C 267.602 152.391,267.480 152.271,266.998 152.916 M254.637 170.827 C 254.401 171.158,254.253 171.429,254.309 171.429 C 254.364 171.429,254.602 171.158,254.837 170.827 C 255.073 170.496,255.220 170.226,255.165 170.226 C 255.110 170.226,254.872 170.496,254.637 170.827 M252.782 173.541 C 252.281 174.211,252.346 174.398,252.855 173.751 C 253.088 173.454,253.246 173.180,253.206 173.142 C 253.166 173.103,252.975 173.283,252.782 173.541 M398.396 185.849 C 398.396 185.951,398.158 186.317,397.867 186.663 C 397.471 187.134,397.395 187.350,397.566 187.521 C 397.737 187.692,397.794 187.689,397.794 187.509 C 397.794 187.376,397.930 187.268,398.095 187.268 C 398.261 187.268,398.396 187.404,398.396 187.569 C 398.396 187.927,397.563 187.975,396.960 187.652 C 396.613 187.466,396.457 187.536,395.920 188.112 C 395.573 188.484,394.995 188.995,394.637 189.246 C 394.278 189.496,393.985 189.831,393.985 189.989 C 393.985 190.146,393.805 190.276,393.584 190.276 C 393.317 190.276,393.183 190.409,393.183 190.677 C 393.183 190.927,393.049 191.078,392.826 191.078 C 392.630 191.078,391.888 191.664,391.178 192.381 C 390.468 193.098,389.804 193.684,389.703 193.684 C 389.602 193.684,389.311 193.910,389.055 194.185 C 388.800 194.461,388.517 194.687,388.428 194.687 C 388.339 194.687,388.176 194.890,388.068 195.138 C 387.959 195.386,387.724 195.590,387.546 195.592 C 387.367 195.594,386.976 195.887,386.676 196.244 C 386.375 196.600,385.952 196.892,385.735 196.892 C 385.506 196.892,385.395 196.982,385.472 197.106 C 385.545 197.224,385.415 197.370,385.183 197.430 C 384.951 197.491,384.762 197.665,384.762 197.818 C 384.762 197.970,384.638 198.095,384.487 198.095 C 384.165 198.095,382.155 199.991,382.155 200.295 C 382.155 200.433,385.085 200.501,391.078 200.501 L 400.000 200.501 399.976 194.135 C 399.951 187.429,399.799 185.355,399.532 188.070 C 399.451 188.897,399.376 191.469,399.365 193.784 L 399.346 197.995 399.178 192.281 C 399.086 189.138,398.960 186.363,398.900 186.115 C 398.793 185.680,398.396 185.471,398.396 185.849 M236.932 196.679 C 236.443 197.506,236.518 197.720,237.021 196.934 C 237.253 196.571,237.405 196.235,237.358 196.188 C 237.311 196.141,237.119 196.362,236.932 196.679 M235.678 198.543 C 234.948 199.635,234.796 199.927,235.229 199.408 C 236.054 198.420,236.431 197.868,236.344 197.781 C 236.292 197.729,235.993 198.072,235.678 198.543 " stroke="none" fill="#1f1c3f" fill-rule="evenodd"/></g></svg>