<svg id="svg" version="1.1" xmlns="http://www.w3.org/2000/svg" xmlns:xlink="http://www.w3.org/1999/xlink" width="400" height="200.42949176807443" viewBox="0, 0, 400,200.42949176807443"><g id="svgg"><path id="path0" d="M326.462 72.185 C 326.271 72.403,325.977 72.743,325.807 72.940 C 325.638 73.137,325.282 73.655,325.016 74.093 C 324.750 74.530,324.482 74.932,324.421 74.987 C 324.360 75.043,324.039 75.494,323.709 75.990 C 323.379 76.486,323.051 76.937,322.980 76.992 C 322.909 77.048,322.646 77.486,322.396 77.968 C 322.146 78.449,321.681 79.126,321.364 79.471 C 321.047 79.817,320.737 80.297,320.676 80.537 C 320.615 80.777,320.438 81.022,320.283 81.082 C 320.127 81.142,320.000 81.329,320.000 81.497 C 320.000 81.666,319.908 81.805,319.795 81.805 C 319.683 81.805,319.480 82.053,319.345 82.356 C 319.090 82.932,319.045 82.999,318.383 83.801 C 318.160 84.071,317.783 84.613,317.545 85.004 C 317.308 85.394,317.060 85.759,316.994 85.815 C 316.929 85.870,316.608 86.343,316.282 86.867 C 315.956 87.390,315.622 87.819,315.539 87.819 C 315.456 87.819,315.388 87.958,315.388 88.127 C 315.388 88.295,315.259 88.483,315.100 88.544 C 314.941 88.605,314.754 88.918,314.683 89.240 C 314.612 89.561,314.469 89.825,314.364 89.825 C 314.259 89.825,314.114 89.978,314.042 90.167 C 313.918 90.489,313.792 90.660,312.932 91.677 C 312.739 91.905,312.581 92.172,312.581 92.270 C 312.581 92.368,312.493 92.557,312.384 92.690 C 311.511 93.761,311.178 94.212,311.178 94.323 C 311.178 94.395,311.086 94.562,310.974 94.695 C 310.348 95.441,309.373 96.843,309.373 97.000 C 309.373 97.099,309.193 97.344,308.972 97.544 C 308.752 97.743,308.571 98.028,308.571 98.176 C 308.571 98.325,308.486 98.446,308.382 98.446 C 308.205 98.446,307.952 98.833,307.334 100.050 C 307.194 100.326,306.893 100.732,306.665 100.953 C 306.438 101.174,305.958 101.851,305.600 102.457 C 304.673 104.026,304.527 104.240,303.909 104.935 C 303.605 105.276,303.300 105.733,303.231 105.951 C 303.162 106.169,303.004 106.453,302.881 106.583 C 302.758 106.712,302.521 107.022,302.356 107.271 C 302.190 107.521,301.852 107.974,301.604 108.277 C 301.356 108.581,301.153 108.922,301.153 109.035 C 301.153 109.148,301.085 109.270,301.003 109.307 C 300.798 109.398,299.950 110.620,299.950 110.825 C 299.950 110.915,299.792 111.134,299.599 111.311 C 299.048 111.817,298.546 112.538,298.546 112.823 C 298.546 112.966,298.479 113.084,298.396 113.086 C 298.313 113.089,297.975 113.538,297.644 114.085 C 297.313 114.632,296.975 115.082,296.892 115.084 C 296.810 115.086,296.742 115.209,296.742 115.358 C 296.742 115.506,296.561 115.836,296.341 116.090 C 296.120 116.345,295.940 116.615,295.940 116.692 C 295.940 116.768,295.750 117.048,295.518 117.313 C 294.849 118.075,293.935 119.450,293.935 119.692 C 293.935 119.813,293.799 119.964,293.634 120.028 C 293.469 120.091,293.333 120.253,293.333 120.386 C 293.333 120.520,293.060 120.936,292.726 121.310 C 292.391 121.684,291.880 122.400,291.590 122.900 C 291.300 123.400,291.009 123.855,290.944 123.910 C 290.879 123.965,290.697 124.260,290.540 124.566 C 290.382 124.872,290.002 125.413,289.694 125.769 C 289.387 126.125,289.042 126.525,288.929 126.658 C 288.815 126.791,288.722 126.954,288.722 127.020 C 288.722 127.170,286.473 130.590,286.281 130.731 C 286.034 130.913,285.113 132.340,285.113 132.540 C 285.113 132.646,285.024 132.732,284.916 132.732 C 284.808 132.732,284.664 132.951,284.597 133.219 C 284.530 133.486,284.348 133.754,284.192 133.814 C 284.037 133.873,283.910 134.018,283.910 134.135 C 283.910 134.252,283.571 134.784,283.158 135.316 C 282.744 135.849,282.297 136.456,282.164 136.664 C 282.031 136.872,281.422 137.801,280.811 138.727 C 280.199 139.654,279.699 140.447,279.699 140.490 C 279.699 140.533,279.605 140.677,279.490 140.810 C 278.894 141.500,277.093 144.153,277.093 144.343 C 277.093 144.463,277.025 144.562,276.942 144.562 C 276.860 144.562,276.525 144.991,276.199 145.514 C 275.874 146.038,275.490 146.538,275.347 146.627 C 275.205 146.715,275.088 146.875,275.088 146.982 C 275.088 147.220,273.726 149.224,273.448 149.396 C 273.338 149.463,273.257 149.599,273.267 149.697 C 273.277 149.795,273.082 150.145,272.836 150.476 C 272.589 150.807,272.381 151.168,272.375 151.278 C 272.368 151.388,272.260 151.458,272.133 151.433 C 272.007 151.407,271.841 151.588,271.765 151.834 C 271.688 152.080,271.570 152.326,271.502 152.381 C 271.184 152.640,270.846 153.426,271.113 153.288 C 271.259 153.212,271.108 153.400,270.777 153.706 C 270.446 154.011,270.332 154.202,270.523 154.131 C 270.849 154.008,271.175 154.336,271.275 154.887 C 271.295 154.997,271.364 155.133,271.427 155.188 C 271.491 155.243,271.484 155.185,271.412 155.059 C 271.340 154.932,271.423 154.774,271.596 154.708 C 272.086 154.520,272.150 154.561,271.880 154.887 C 271.736 155.061,271.716 155.188,271.834 155.188 C 272.102 155.188,272.318 154.608,272.150 154.337 C 272.078 154.220,272.101 154.175,272.202 154.237 C 272.303 154.299,272.565 154.211,272.784 154.040 C 273.169 153.741,273.170 153.735,272.793 153.866 C 272.413 153.999,272.413 153.992,272.774 153.593 C 273.190 153.133,273.381 153.055,273.163 153.434 C 273.079 153.579,273.095 153.614,273.201 153.517 C 273.301 153.425,273.383 153.276,273.383 153.185 C 273.383 153.095,273.632 152.741,273.936 152.400 C 274.240 152.059,274.421 151.778,274.337 151.776 C 274.254 151.775,274.304 151.698,274.449 151.606 C 274.595 151.514,274.733 151.305,274.757 151.141 C 274.781 150.978,275.091 150.477,275.445 150.030 C 275.800 149.582,276.090 149.116,276.090 148.994 C 276.090 148.872,276.183 148.772,276.297 148.772 C 276.411 148.772,276.564 148.614,276.638 148.421 C 276.711 148.228,276.934 147.895,277.133 147.681 C 277.331 147.468,277.494 147.174,277.494 147.030 C 277.494 146.885,277.566 146.767,277.655 146.767 C 277.857 146.767,279.499 144.455,279.499 144.170 C 279.499 144.055,279.583 143.960,279.686 143.960 C 279.789 143.960,279.935 143.764,280.011 143.524 C 280.160 143.056,280.397 142.721,280.952 142.197 C 281.145 142.015,281.303 141.795,281.303 141.708 C 281.303 141.531,282.640 139.589,283.031 139.197 C 283.169 139.058,283.339 138.765,283.409 138.545 C 283.479 138.325,283.620 138.145,283.723 138.145 C 283.826 138.145,283.910 138.007,283.910 137.838 C 283.910 137.669,284.045 137.479,284.211 137.416 C 284.376 137.352,284.511 137.224,284.511 137.130 C 284.511 137.037,284.738 136.618,285.016 136.199 C 285.294 135.781,285.632 135.270,285.768 135.065 C 285.904 134.859,286.159 134.498,286.335 134.263 C 287.068 133.282,288.120 131.726,288.120 131.622 C 288.120 131.561,288.337 131.277,288.602 130.992 C 288.867 130.706,289.206 130.236,289.354 129.948 C 289.503 129.659,289.743 129.298,289.888 129.145 C 290.034 128.991,290.298 128.631,290.475 128.343 C 291.390 126.854,293.780 123.335,294.132 122.957 C 294.355 122.718,294.536 122.459,294.536 122.380 C 294.536 122.301,294.686 122.071,294.869 121.869 C 295.209 121.493,295.523 120.993,295.980 120.100 C 296.120 119.825,296.339 119.509,296.466 119.398 C 296.828 119.083,298.145 117.119,298.145 116.894 C 298.145 116.783,298.236 116.692,298.346 116.692 C 298.456 116.692,298.546 116.592,298.546 116.470 C 298.546 116.348,298.749 115.996,298.997 115.688 C 299.996 114.446,300.473 113.784,300.933 113.001 C 301.197 112.550,301.716 111.804,302.085 111.345 C 302.455 110.885,302.757 110.411,302.757 110.292 C 302.757 110.173,302.825 110.075,302.908 110.075 C 302.992 110.075,303.188 109.782,303.344 109.424 C 303.499 109.065,303.692 108.727,303.772 108.672 C 304.084 108.456,305.564 106.363,305.564 106.137 C 305.564 106.006,305.632 105.868,305.714 105.831 C 305.897 105.750,307.168 103.946,307.168 103.768 C 307.168 103.699,307.393 103.398,307.669 103.101 C 307.945 102.804,308.170 102.447,308.170 102.308 C 308.170 102.169,308.256 102.055,308.362 102.055 C 308.467 102.055,308.703 101.739,308.886 101.352 C 309.070 100.965,309.434 100.446,309.694 100.199 C 309.955 99.952,310.170 99.644,310.172 99.515 C 310.174 99.387,310.247 99.251,310.334 99.215 C 310.422 99.178,310.708 98.787,310.971 98.346 C 311.234 97.905,311.574 97.409,311.727 97.243 C 312.119 96.817,313.571 94.569,313.578 94.376 C 313.581 94.288,313.789 94.018,314.039 93.775 C 314.578 93.252,315.589 91.725,315.589 91.433 C 315.589 91.320,315.679 91.228,315.789 91.228 C 315.900 91.228,315.990 91.093,315.990 90.927 C 315.990 90.762,316.074 90.627,316.176 90.627 C 316.279 90.627,316.797 89.928,317.329 89.074 C 317.861 88.220,318.450 87.366,318.638 87.177 C 318.827 86.988,319.157 86.492,319.373 86.073 C 319.588 85.655,319.937 85.131,320.147 84.909 C 320.357 84.687,320.789 84.055,321.107 83.506 C 321.425 82.956,321.749 82.461,321.827 82.405 C 321.905 82.350,322.469 81.538,323.080 80.601 C 323.691 79.664,324.321 78.762,324.480 78.596 C 324.639 78.431,325.056 77.799,325.407 77.193 C 325.758 76.586,326.152 75.999,326.281 75.887 C 326.614 75.600,327.419 74.434,327.419 74.238 C 327.419 74.148,327.599 73.920,327.820 73.731 C 328.040 73.542,328.221 73.161,328.221 72.884 C 328.221 72.515,328.114 72.381,327.820 72.381 C 327.599 72.381,327.419 72.300,327.419 72.202 C 327.419 71.818,326.792 71.806,326.462 72.185 M369.149 153.367 C 369.006 153.456,368.873 153.609,368.855 153.707 C 368.837 153.805,368.754 153.862,368.672 153.835 C 368.412 153.748,368.509 154.347,368.772 154.454 C 368.938 154.521,368.918 154.560,368.712 154.571 C 368.541 154.579,368.293 154.478,368.160 154.346 C 368.028 154.214,367.924 154.191,367.929 154.296 C 367.934 154.401,369.084 155.058,370.485 155.756 C 371.886 156.454,373.168 157.103,373.333 157.197 C 373.499 157.292,374.148 157.623,374.777 157.933 C 377.864 159.454,379.455 160.297,379.515 160.442 C 379.552 160.530,379.671 160.602,379.778 160.602 C 380.086 160.602,382.248 161.653,382.322 161.839 C 382.359 161.930,382.485 162.005,382.601 162.005 C 382.893 162.005,384.646 162.872,384.728 163.058 C 384.765 163.140,384.887 163.208,384.999 163.208 C 385.234 163.208,388.622 164.846,388.772 165.032 C 388.827 165.101,389.211 165.278,389.624 165.426 C 390.038 165.574,390.376 165.760,390.376 165.839 C 390.376 165.918,390.647 166.043,390.977 166.115 C 391.308 166.188,391.579 166.323,391.579 166.416 C 391.579 166.509,391.850 166.644,392.180 166.717 C 392.511 166.789,392.782 166.918,392.782 167.001 C 392.782 167.085,393.143 167.273,393.584 167.419 C 394.025 167.564,394.386 167.752,394.386 167.836 C 394.386 167.920,394.657 168.048,394.987 168.120 C 395.318 168.193,395.589 168.328,395.589 168.421 C 395.589 168.514,395.860 168.649,396.190 168.722 C 396.521 168.794,396.792 168.933,396.792 169.030 C 396.792 169.128,397.153 169.315,397.594 169.447 C 398.035 169.579,398.396 169.756,398.396 169.840 C 398.396 169.924,398.667 170.053,398.997 170.125 C 399.328 170.198,399.599 170.340,399.599 170.442 C 399.599 170.544,399.689 170.627,399.799 170.627 C 400.635 170.627,399.837 168.338,398.921 168.108 C 398.632 168.036,398.396 167.910,398.396 167.830 C 398.396 167.749,398.035 167.574,397.594 167.442 C 397.153 167.310,396.792 167.123,396.792 167.025 C 396.792 166.928,396.521 166.789,396.190 166.717 C 395.860 166.644,395.589 166.509,395.589 166.416 C 395.589 166.323,395.318 166.188,394.987 166.115 C 394.657 166.043,394.386 165.914,394.386 165.830 C 394.386 165.746,394.025 165.569,393.584 165.437 C 393.143 165.305,392.782 165.118,392.782 165.020 C 392.782 164.923,392.511 164.784,392.180 164.712 C 391.850 164.639,391.579 164.497,391.579 164.395 C 391.579 164.294,391.483 164.211,391.366 164.211 C 391.085 164.211,388.901 163.184,388.770 162.990 C 388.714 162.907,388.420 162.777,388.118 162.701 C 387.816 162.625,387.569 162.483,387.569 162.384 C 387.569 162.286,387.463 162.206,387.334 162.206 C 387.059 162.206,383.708 160.579,383.557 160.372 C 383.501 160.295,383.207 160.170,382.905 160.094 C 382.603 160.019,382.356 159.883,382.356 159.794 C 382.356 159.704,382.086 159.572,381.757 159.499 C 381.427 159.427,381.113 159.295,381.058 159.206 C 381.003 159.117,380.077 158.608,379.000 158.075 C 377.923 157.542,376.997 157.042,376.940 156.965 C 376.884 156.887,376.591 156.762,376.289 156.686 C 375.987 156.610,375.739 156.468,375.739 156.369 C 375.739 156.271,375.571 156.190,375.365 156.190 C 375.160 156.190,374.762 156.010,374.482 155.789 C 374.201 155.569,373.889 155.388,373.788 155.388 C 373.687 155.388,372.905 155.027,372.050 154.584 C 371.195 154.142,370.412 153.831,370.310 153.894 C 370.209 153.957,370.125 153.853,370.125 153.663 C 370.125 153.472,370.066 153.376,369.993 153.449 C 369.921 153.521,369.760 153.496,369.636 153.393 C 369.512 153.290,369.293 153.278,369.149 153.367 M271.145 156.040 C 270.928 156.389,270.879 156.814,271.071 156.696 C 271.232 156.596,271.499 155.789,271.372 155.789 C 271.333 155.789,271.231 155.902,271.145 156.040 " stroke="none" fill="#8343b2" fill-rule="evenodd"></path><path id="path1" d="M308.092 123.024 C 307.770 123.861,307.956 124.476,308.571 124.612 C 308.902 124.684,309.173 124.823,309.173 124.920 C 309.173 125.017,309.534 125.205,309.975 125.337 C 310.416 125.469,310.777 125.646,310.777 125.730 C 310.777 125.814,311.048 125.942,311.378 126.015 C 311.709 126.088,311.980 126.223,311.980 126.316 C 311.980 126.409,312.251 126.544,312.581 126.617 C 312.912 126.689,313.183 126.828,313.183 126.925 C 313.183 127.022,313.544 127.210,313.985 127.342 C 314.426 127.474,314.787 127.651,314.787 127.735 C 314.787 127.819,315.058 127.947,315.388 128.020 C 315.719 128.093,315.990 128.228,315.990 128.321 C 315.990 128.414,316.261 128.549,316.591 128.622 C 316.922 128.694,317.193 128.833,317.193 128.930 C 317.193 129.027,317.554 129.215,317.995 129.347 C 318.436 129.479,318.797 129.656,318.797 129.740 C 318.797 129.824,319.068 129.952,319.398 130.025 C 319.729 130.098,320.000 130.233,320.000 130.326 C 320.000 130.419,320.271 130.554,320.602 130.627 C 320.932 130.699,321.203 130.838,321.203 130.935 C 321.203 131.032,321.564 131.220,322.005 131.352 C 322.446 131.484,322.807 131.661,322.807 131.745 C 322.807 131.829,323.078 131.957,323.409 132.030 C 323.739 132.103,324.010 132.235,324.010 132.325 C 324.010 132.414,324.596 132.743,325.313 133.055 C 326.030 133.368,326.617 133.683,326.617 133.757 C 326.617 133.831,326.864 133.953,327.166 134.029 C 327.468 134.105,327.761 134.235,327.818 134.318 C 327.944 134.506,330.128 135.539,330.397 135.539 C 330.505 135.539,330.623 135.607,330.660 135.691 C 330.750 135.896,334.069 137.548,334.386 137.546 C 334.524 137.545,334.637 137.624,334.637 137.723 C 334.637 137.821,334.884 137.963,335.186 138.039 C 335.488 138.115,335.781 138.245,335.838 138.328 C 335.964 138.516,338.148 139.549,338.417 139.549 C 338.525 139.549,338.643 139.617,338.680 139.701 C 338.767 139.899,342.084 141.558,342.389 141.556 C 342.518 141.555,342.653 141.622,342.690 141.706 C 342.777 141.904,346.094 143.563,346.399 143.561 C 346.528 143.560,346.663 143.627,346.700 143.709 C 346.737 143.792,347.218 144.085,347.769 144.361 C 348.321 144.637,348.817 144.917,348.872 144.983 C 348.927 145.050,349.333 145.221,349.774 145.363 C 350.216 145.506,350.622 145.677,350.677 145.743 C 350.732 145.810,351.228 146.090,351.779 146.366 C 352.331 146.642,352.827 146.925,352.882 146.995 C 352.937 147.066,353.366 147.238,353.835 147.378 C 354.303 147.518,354.687 147.699,354.687 147.779 C 354.687 147.860,354.912 147.983,355.188 148.052 C 355.464 148.121,355.689 148.267,355.689 148.375 C 355.689 148.483,355.802 148.574,355.940 148.578 C 356.078 148.581,356.642 148.806,357.193 149.077 C 357.744 149.348,358.301 149.571,358.429 149.572 C 358.558 149.573,358.693 149.642,358.730 149.726 C 358.817 149.924,362.134 151.583,362.439 151.581 C 362.568 151.580,362.703 151.649,362.740 151.735 C 362.823 151.930,366.177 153.584,366.489 153.584 C 366.614 153.584,366.717 153.674,366.717 153.784 C 366.717 153.895,366.846 153.985,367.003 153.985 C 367.161 153.985,367.431 154.127,367.605 154.300 C 367.828 154.523,367.920 154.541,367.920 154.360 C 367.920 154.162,367.973 154.159,368.160 154.346 C 368.293 154.478,368.541 154.579,368.712 154.571 C 368.918 154.560,368.938 154.521,368.772 154.454 C 368.509 154.347,368.412 153.748,368.672 153.835 C 368.754 153.862,368.837 153.805,368.855 153.707 C 368.873 153.609,369.009 153.452,369.156 153.359 C 369.359 153.230,369.336 153.188,369.061 153.186 C 368.835 153.184,368.753 153.094,368.843 152.948 C 368.941 152.791,368.879 152.756,368.654 152.842 C 368.471 152.912,368.321 152.882,368.321 152.776 C 368.321 152.669,368.193 152.581,368.037 152.581 C 367.881 152.581,367.723 152.514,367.686 152.431 C 367.622 152.287,366.380 151.659,366.063 151.610 C 365.979 151.597,365.303 151.256,364.559 150.852 C 361.766 149.336,361.437 149.173,361.173 149.173 C 361.024 149.173,360.902 149.092,360.902 148.994 C 360.902 148.896,360.655 148.753,360.353 148.678 C 360.051 148.602,359.757 148.478,359.701 148.403 C 359.543 148.192,357.419 147.168,357.140 147.168 C 357.004 147.168,356.892 147.087,356.892 146.989 C 356.892 146.891,356.645 146.748,356.343 146.673 C 356.041 146.597,355.747 146.473,355.691 146.398 C 355.533 146.187,353.409 145.163,353.130 145.163 C 352.994 145.163,352.882 145.082,352.882 144.984 C 352.882 144.886,352.635 144.743,352.333 144.667 C 352.031 144.592,351.737 144.468,351.681 144.393 C 351.523 144.182,349.399 143.158,349.120 143.158 C 348.984 143.158,348.872 143.077,348.872 142.979 C 348.872 142.881,348.625 142.738,348.323 142.662 C 348.021 142.587,347.727 142.463,347.671 142.388 C 347.513 142.177,345.389 141.153,345.110 141.153 C 344.974 141.153,344.862 141.070,344.862 140.968 C 344.862 140.867,344.591 140.724,344.261 140.652 C 343.930 140.579,343.659 140.455,343.659 140.377 C 343.659 140.215,341.413 139.148,341.073 139.148 C 340.951 139.148,340.852 139.065,340.852 138.963 C 340.852 138.862,340.581 138.719,340.251 138.647 C 339.920 138.574,339.649 138.433,339.649 138.334 C 339.649 138.234,339.424 138.096,339.148 138.027 C 338.872 137.958,338.647 137.833,338.647 137.749 C 338.647 137.665,338.241 137.482,337.744 137.343 C 337.248 137.204,336.842 137.019,336.842 136.932 C 336.842 136.845,336.571 136.714,336.241 136.642 C 335.910 136.569,335.639 136.428,335.639 136.329 C 335.639 136.229,335.414 136.091,335.138 136.022 C 334.862 135.953,334.637 135.816,334.637 135.718 C 334.637 135.619,334.525 135.539,334.389 135.539 C 334.122 135.539,331.995 134.522,331.830 134.315 C 331.683 134.131,329.522 133.133,329.271 133.133 C 329.153 133.133,329.026 133.056,328.989 132.962 C 328.952 132.868,327.840 132.267,326.516 131.625 C 325.193 130.984,324.080 130.384,324.043 130.292 C 324.007 130.200,323.878 130.125,323.758 130.125 C 323.495 130.125,320.144 128.491,319.998 128.292 C 319.942 128.215,319.649 128.090,319.346 128.014 C 319.044 127.938,318.797 127.796,318.797 127.698 C 318.797 127.599,318.684 127.519,318.547 127.519 C 318.286 127.519,314.962 125.905,314.787 125.693 C 314.732 125.626,314.348 125.462,313.935 125.327 C 313.521 125.192,313.183 125.006,313.183 124.913 C 313.183 124.820,312.912 124.684,312.581 124.612 C 312.251 124.539,311.980 124.404,311.980 124.311 C 311.980 124.218,311.709 124.083,311.378 124.010 C 311.048 123.937,310.777 123.809,310.777 123.725 C 310.777 123.641,310.416 123.464,309.975 123.332 C 309.534 123.200,309.173 123.005,309.173 122.899 C 309.173 122.576,308.221 122.685,308.092 123.024 M272.872 153.495 C 272.607 153.777,272.526 153.955,272.691 153.892 C 272.952 153.792,273.601 152.982,273.420 152.982 C 273.383 152.982,273.136 153.213,272.872 153.495 M270.653 153.567 C 270.640 153.742,270.640 153.952,270.653 154.035 C 270.666 154.118,270.552 154.185,270.400 154.185 C 270.128 154.185,269.529 155.331,269.631 155.654 C 269.660 155.745,269.614 155.782,269.529 155.736 C 269.329 155.629,268.667 156.320,268.822 156.475 C 268.886 156.539,268.834 156.591,268.705 156.591 C 268.576 156.591,268.471 156.727,268.471 156.892 C 268.471 157.058,268.390 157.193,268.290 157.193 C 268.190 157.193,267.860 157.622,267.556 158.145 C 267.252 158.669,266.883 159.170,266.735 159.258 C 266.587 159.346,266.466 159.549,266.466 159.709 C 266.466 159.869,266.391 160.000,266.300 160.000 C 266.208 160.000,266.005 160.248,265.849 160.551 C 265.692 160.855,265.519 161.148,265.463 161.203 C 265.201 161.461,264.261 162.795,264.261 162.908 C 264.261 162.979,264.148 163.154,264.010 163.298 C 263.737 163.583,263.638 163.724,262.451 165.514 C 262.012 166.175,261.518 166.893,261.353 167.108 C 261.188 167.324,261.053 167.566,261.053 167.647 C 261.053 167.728,260.781 168.092,260.450 168.454 C 260.119 168.817,259.792 169.290,259.724 169.504 C 259.656 169.719,259.520 169.991,259.421 170.110 C 258.850 170.799,257.898 172.181,257.786 172.481 C 257.715 172.674,257.570 172.832,257.463 172.832 C 257.357 172.832,257.208 173.028,257.132 173.268 C 256.983 173.736,256.746 174.071,256.190 174.595 C 255.997 174.777,255.840 175.035,255.840 175.168 C 255.840 175.301,255.727 175.529,255.589 175.675 C 255.324 175.955,254.342 177.337,253.835 178.143 C 253.669 178.406,252.970 179.444,252.281 180.450 C 251.591 181.456,251.028 182.355,251.028 182.447 C 251.028 182.539,250.892 182.666,250.727 182.729 C 250.561 182.793,250.426 182.983,250.426 183.152 C 250.426 183.320,250.342 183.459,250.239 183.459 C 250.136 183.459,249.998 183.628,249.932 183.836 C 249.867 184.043,249.657 184.396,249.468 184.619 C 249.278 184.843,248.987 185.225,248.822 185.468 C 248.657 185.712,248.379 186.104,248.205 186.339 C 248.030 186.574,247.830 186.925,247.760 187.118 C 247.689 187.311,247.539 187.469,247.425 187.469 C 247.311 187.469,247.218 187.563,247.218 187.677 C 247.218 187.942,246.397 189.121,246.065 189.333 C 245.927 189.421,245.815 189.583,245.815 189.692 C 245.815 189.904,245.023 191.097,244.749 191.298 C 244.659 191.364,244.472 191.635,244.333 191.900 C 243.800 192.918,243.493 193.374,243.058 193.795 C 242.810 194.035,242.607 194.291,242.607 194.363 C 242.607 194.527,241.591 196.099,241.257 196.452 C 240.897 196.832,239.599 198.813,239.599 198.982 C 239.599 199.062,239.486 199.252,239.348 199.406 C 238.345 200.524,238.349 200.532,239.843 200.461 C 241.186 200.396,241.025 200.520,242.259 198.615 C 242.395 198.405,242.664 198.092,242.857 197.919 C 243.050 197.746,243.214 197.512,243.221 197.399 C 243.229 197.286,243.636 196.652,244.126 195.990 C 244.617 195.328,245.097 194.603,245.195 194.378 C 245.292 194.153,245.516 193.848,245.693 193.702 C 245.870 193.555,246.015 193.318,246.015 193.175 C 246.015 193.032,246.083 192.886,246.165 192.849 C 246.248 192.812,246.586 192.376,246.917 191.880 C 247.248 191.383,247.609 190.868,247.719 190.734 C 247.830 190.600,248.016 190.373,248.134 190.229 C 248.252 190.086,248.599 189.542,248.905 189.019 C 249.211 188.497,249.543 188.070,249.643 188.070 C 249.743 188.070,249.825 187.949,249.825 187.800 C 249.825 187.652,250.003 187.313,250.222 187.048 C 250.440 186.783,250.693 186.476,250.783 186.366 C 250.874 186.256,251.003 186.030,251.070 185.865 C 251.137 185.699,251.832 184.662,252.613 183.559 C 253.394 182.456,254.034 181.436,254.034 181.291 C 254.035 181.147,254.116 181.079,254.215 181.140 C 254.313 181.201,254.449 181.109,254.515 180.935 C 254.624 180.651,255.904 178.640,256.290 178.145 C 257.021 177.211,257.796 176.078,257.903 175.789 C 257.974 175.596,258.126 175.439,258.239 175.439 C 258.353 175.439,258.446 175.317,258.446 175.169 C 258.446 175.021,258.627 174.736,258.847 174.536 C 259.068 174.337,259.248 174.105,259.248 174.021 C 259.248 173.937,259.902 172.890,260.702 171.696 C 262.251 169.381,262.253 169.378,262.861 168.641 C 263.079 168.376,263.258 168.035,263.258 167.883 C 263.258 167.731,263.393 167.555,263.559 167.491 C 263.724 167.428,263.860 167.247,263.860 167.090 C 263.860 166.933,263.995 166.753,264.160 166.689 C 264.326 166.626,264.461 166.454,264.461 166.309 C 264.461 166.163,264.574 165.924,264.712 165.779 C 264.850 165.633,265.233 165.108,265.563 164.612 C 265.894 164.115,266.212 163.664,266.269 163.609 C 266.327 163.554,266.778 162.877,267.271 162.105 C 267.764 161.333,268.323 160.530,268.513 160.321 C 268.703 160.111,268.817 159.872,268.766 159.790 C 268.715 159.708,268.822 159.584,269.002 159.515 C 269.183 159.446,269.278 159.336,269.214 159.272 C 269.150 159.208,269.317 158.935,269.586 158.666 C 269.855 158.397,270.075 158.043,270.075 157.879 C 270.075 157.715,270.202 157.533,270.356 157.474 C 270.590 157.384,270.755 157.084,270.952 156.391 C 271.057 156.022,271.644 155.418,271.779 155.540 C 271.870 155.622,271.891 155.542,271.827 155.363 C 271.763 155.183,271.816 154.922,271.945 154.782 C 272.131 154.581,272.102 154.555,271.813 154.657 C 271.611 154.729,271.403 154.787,271.350 154.787 C 271.298 154.787,271.319 154.891,271.398 155.018 C 271.487 155.163,271.453 155.195,271.306 155.105 C 271.177 155.025,271.115 154.889,271.168 154.803 C 271.222 154.716,271.140 154.474,270.986 154.265 C 270.747 153.939,270.749 153.839,270.994 153.567 C 271.242 153.291,271.240 153.250,270.978 153.250 C 270.812 153.250,270.666 153.393,270.653 153.567 " stroke="none" fill="#6db86a" fill-rule="evenodd"></path><path id="path2" d="M271.786 0.451 C 271.860 0.699,272.040 0.998,272.187 1.115 C 272.334 1.232,272.515 1.571,272.590 1.867 C 272.664 2.163,272.806 2.406,272.904 2.406 C 273.002 2.406,273.083 2.544,273.083 2.713 C 273.083 2.882,273.210 3.069,273.365 3.129 C 273.521 3.188,273.701 3.448,273.765 3.705 C 273.830 3.962,274.199 4.653,274.586 5.240 C 274.972 5.827,275.288 6.421,275.288 6.562 C 275.288 6.702,275.377 6.817,275.486 6.817 C 275.595 6.817,275.819 7.110,275.983 7.469 C 276.389 8.353,276.743 8.891,277.043 9.083 C 277.180 9.171,277.293 9.374,277.293 9.534 C 277.293 9.694,277.375 9.825,277.474 9.825 C 277.574 9.825,277.749 10.095,277.865 10.426 C 277.980 10.757,278.150 11.028,278.241 11.028 C 278.333 11.028,278.515 11.276,278.646 11.579 C 278.967 12.326,279.347 12.899,279.649 13.093 C 279.787 13.181,279.900 13.385,279.900 13.546 C 279.900 13.707,280.080 13.993,280.301 14.182 C 280.521 14.371,280.702 14.631,280.702 14.760 C 280.702 14.889,280.837 15.047,281.003 15.110 C 281.168 15.174,281.303 15.364,281.303 15.533 C 281.303 15.701,281.385 15.840,281.484 15.840 C 281.584 15.840,281.759 16.110,281.875 16.441 C 281.990 16.772,282.179 17.043,282.295 17.043 C 282.411 17.043,282.506 17.158,282.506 17.299 C 282.506 17.440,282.687 17.709,282.907 17.898 C 283.128 18.087,283.308 18.378,283.308 18.544 C 283.308 18.711,283.401 18.847,283.514 18.847 C 283.627 18.847,283.805 19.073,283.910 19.348 C 284.015 19.624,284.187 19.850,284.292 19.850 C 284.398 19.850,284.541 20.029,284.611 20.248 C 284.680 20.467,284.992 20.928,285.305 21.272 C 286.212 22.271,286.438 22.566,286.575 22.923 C 286.646 23.107,286.791 23.258,286.897 23.258 C 287.004 23.258,287.151 23.448,287.224 23.679 C 287.361 24.110,287.485 24.276,288.525 25.420 C 288.854 25.783,289.123 26.167,289.123 26.274 C 289.123 26.381,289.348 26.665,289.624 26.905 C 289.900 27.144,290.125 27.421,290.125 27.520 C 290.125 27.619,290.396 27.971,290.727 28.302 C 291.058 28.632,291.328 28.968,291.328 29.048 C 291.328 29.127,291.641 29.504,292.024 29.884 C 292.406 30.265,292.722 30.641,292.725 30.721 C 292.731 30.855,293.246 31.462,294.577 32.907 C 294.875 33.231,295.323 33.782,295.572 34.132 C 296.037 34.785,296.835 35.669,299.198 38.145 C 299.942 38.925,300.551 39.634,300.551 39.721 C 300.551 39.898,312.936 52.331,313.113 52.331 C 313.261 52.331,313.998 53.003,315.148 54.185 C 315.656 54.709,316.162 55.138,316.270 55.138 C 316.378 55.138,316.878 55.578,317.381 56.116 C 317.884 56.655,318.484 57.152,318.715 57.222 C 318.945 57.293,319.253 57.573,319.398 57.845 C 319.544 58.117,319.843 58.396,320.062 58.466 C 320.281 58.535,320.845 58.988,321.315 59.472 C 321.785 59.955,322.245 60.352,322.338 60.354 C 322.431 60.356,322.719 60.582,322.978 60.856 C 323.238 61.129,323.554 61.357,323.680 61.362 C 323.806 61.367,324.131 61.637,324.402 61.963 C 324.672 62.290,324.968 62.556,325.060 62.556 C 325.152 62.556,325.481 62.817,325.792 63.135 C 326.104 63.454,326.543 63.773,326.770 63.845 C 326.996 63.916,327.232 64.107,327.293 64.268 C 327.355 64.429,327.502 64.561,327.620 64.561 C 327.737 64.561,328.081 64.815,328.383 65.124 C 328.686 65.434,329.089 65.747,329.279 65.820 C 329.469 65.893,329.624 66.039,329.624 66.146 C 329.624 66.252,329.813 66.399,330.045 66.472 C 330.276 66.546,330.631 66.755,330.832 66.937 C 331.034 67.119,331.319 67.360,331.464 67.472 C 332.262 68.085,332.835 68.504,333.243 68.772 C 333.494 68.937,333.866 69.231,334.068 69.424 C 334.271 69.617,334.513 69.774,334.606 69.774 C 334.755 69.774,334.971 69.931,335.952 70.746 C 336.070 70.844,336.384 71.040,336.650 71.182 C 336.917 71.325,337.246 71.540,337.382 71.661 C 338.034 72.236,338.244 72.381,338.428 72.381 C 338.537 72.381,338.699 72.494,338.787 72.632 C 338.875 72.770,339.218 73.018,339.549 73.183 C 339.880 73.349,340.270 73.596,340.415 73.734 C 340.561 73.872,340.800 73.985,340.945 73.985 C 341.091 73.985,341.262 74.120,341.326 74.286 C 341.389 74.451,341.570 74.586,341.727 74.586 C 341.884 74.586,342.064 74.722,342.128 74.887 C 342.191 75.053,342.367 75.188,342.519 75.188 C 342.671 75.188,343.004 75.368,343.258 75.589 C 343.512 75.810,343.842 75.990,343.991 75.990 C 344.139 75.990,344.261 76.078,344.261 76.187 C 344.261 76.295,344.486 76.440,344.762 76.509 C 345.038 76.578,345.263 76.710,345.263 76.803 C 345.263 76.960,345.656 77.212,346.867 77.831 C 347.143 77.972,347.441 78.201,347.529 78.342 C 347.617 78.482,347.820 78.596,347.980 78.596 C 348.140 78.596,348.271 78.669,348.271 78.757 C 348.271 78.845,348.586 79.031,348.972 79.171 C 349.358 79.310,349.674 79.509,349.674 79.612 C 349.674 79.715,349.803 79.799,349.961 79.799 C 350.118 79.799,350.367 79.912,350.514 80.050 C 350.660 80.188,351.318 80.571,351.975 80.902 C 352.632 81.233,353.291 81.617,353.441 81.754 C 353.591 81.892,353.842 82.005,353.999 82.005 C 354.157 82.005,354.286 82.094,354.286 82.202 C 354.286 82.310,354.511 82.455,354.787 82.524 C 355.063 82.593,355.288 82.723,355.288 82.813 C 355.288 82.903,355.624 83.087,356.035 83.223 C 356.445 83.358,356.893 83.568,357.030 83.689 C 357.698 84.280,357.899 84.404,358.379 84.525 C 358.664 84.596,358.897 84.724,358.897 84.808 C 358.897 84.892,359.303 85.074,359.799 85.213 C 360.296 85.352,360.702 85.544,360.702 85.640 C 360.702 85.736,360.831 85.815,360.988 85.815 C 361.146 85.815,361.394 85.932,361.540 86.077 C 361.685 86.221,362.346 86.604,363.008 86.929 C 363.669 87.253,364.241 87.586,364.277 87.669 C 364.314 87.752,364.449 87.823,364.578 87.826 C 364.707 87.830,365.173 88.007,365.614 88.221 C 366.055 88.434,366.529 88.611,366.667 88.615 C 366.805 88.618,366.917 88.700,366.917 88.796 C 366.917 88.892,367.323 89.084,367.820 89.223 C 368.316 89.362,368.722 89.548,368.722 89.637 C 368.722 89.725,368.925 89.861,369.173 89.938 C 369.421 90.016,369.669 90.137,369.724 90.209 C 369.779 90.280,370.501 90.604,371.328 90.930 C 372.155 91.255,372.861 91.588,372.897 91.669 C 372.932 91.750,373.271 91.875,373.649 91.946 C 374.027 92.017,374.336 92.148,374.336 92.237 C 374.336 92.326,374.607 92.459,374.937 92.531 C 375.268 92.604,375.539 92.729,375.539 92.810 C 375.539 92.891,375.990 93.072,376.541 93.214 C 377.093 93.355,377.544 93.542,377.544 93.630 C 377.544 93.718,377.860 93.849,378.246 93.922 C 378.632 93.994,378.947 94.129,378.947 94.222 C 378.947 94.315,379.263 94.451,379.649 94.523 C 380.035 94.596,380.351 94.730,380.351 94.821 C 380.351 94.913,380.892 95.108,381.554 95.254 C 382.216 95.401,382.757 95.589,382.757 95.671 C 382.757 95.754,383.073 95.881,383.459 95.953 C 383.845 96.025,384.160 96.155,384.160 96.241 C 384.160 96.326,384.476 96.456,384.862 96.528 C 385.248 96.601,385.564 96.732,385.564 96.819 C 385.564 96.907,386.060 97.090,386.667 97.226 C 387.273 97.361,387.769 97.546,387.769 97.636 C 387.769 97.726,388.175 97.860,388.672 97.934 C 389.168 98.009,389.574 98.144,389.574 98.236 C 389.574 98.327,389.912 98.465,390.326 98.542 C 390.739 98.619,391.168 98.755,391.278 98.843 C 391.388 98.931,391.997 99.118,392.632 99.258 C 393.266 99.398,393.784 99.578,393.784 99.658 C 393.784 99.738,394.190 99.865,394.687 99.939 C 395.183 100.014,395.589 100.149,395.589 100.241 C 395.589 100.332,395.927 100.470,396.341 100.547 C 396.754 100.624,397.183 100.759,397.293 100.847 C 397.480 100.995,399.382 101.454,399.809 101.454 C 399.929 101.454,400.000 82.660,400.000 50.727 L 400.000 0.000 335.826 0.000 L 271.652 0.000 271.786 0.451 M288.722 56.555 C 288.722 56.672,288.496 57.064,288.221 57.426 C 287.945 57.787,287.719 58.146,287.719 58.223 C 287.719 58.300,287.627 58.472,287.515 58.605 C 286.700 59.572,286.516 59.843,286.516 60.081 C 286.516 60.229,286.442 60.351,286.351 60.351 C 286.260 60.351,285.831 60.854,285.398 61.468 C 284.966 62.082,284.517 62.691,284.403 62.821 C 284.288 62.951,284.076 63.344,283.933 63.695 C 283.790 64.045,283.545 64.381,283.390 64.440 C 283.235 64.500,283.108 64.646,283.108 64.764 C 283.108 64.883,282.891 65.214,282.626 65.500 C 282.361 65.786,282.022 66.255,281.874 66.544 C 281.725 66.832,281.398 67.293,281.147 67.569 C 280.895 67.845,280.637 68.273,280.574 68.521 C 280.510 68.769,280.375 68.972,280.274 68.972 C 280.173 68.972,280.005 69.198,279.900 69.474 C 279.795 69.749,279.618 69.975,279.508 69.975 C 279.397 69.975,279.251 70.194,279.184 70.462 C 279.117 70.729,278.934 70.997,278.779 71.057 C 278.623 71.117,278.496 71.304,278.496 71.472 C 278.496 71.641,278.417 71.779,278.320 71.779 C 278.223 71.779,278.034 72.044,277.901 72.367 C 277.767 72.689,277.530 73.002,277.375 73.062 C 277.220 73.122,277.093 73.259,277.093 73.367 C 277.093 73.475,276.887 73.786,276.635 74.058 C 276.383 74.330,276.044 74.808,275.883 75.121 C 275.722 75.433,275.477 75.761,275.339 75.850 C 275.201 75.938,275.088 76.141,275.088 76.301 C 275.088 76.461,275.020 76.592,274.937 76.592 C 274.855 76.592,274.534 77.043,274.224 77.594 C 273.914 78.145,273.576 78.596,273.472 78.596 C 273.368 78.596,273.283 78.718,273.283 78.866 C 273.283 79.014,273.103 79.299,272.882 79.499 C 272.662 79.698,272.481 79.983,272.481 80.131 C 272.481 80.280,272.407 80.401,272.316 80.401 C 272.128 80.401,271.078 81.947,271.078 82.224 C 271.078 82.324,270.991 82.406,270.886 82.406 C 270.780 82.406,270.445 82.835,270.141 83.358 C 269.837 83.882,269.518 84.341,269.431 84.378 C 269.344 84.414,269.273 84.568,269.273 84.719 C 269.273 84.869,269.160 85.065,269.023 85.153 C 268.723 85.345,267.995 86.375,267.812 86.867 C 267.741 87.060,267.589 87.218,267.475 87.218 C 267.361 87.218,267.268 87.312,267.268 87.427 C 267.268 87.691,266.447 88.870,266.115 89.083 C 265.977 89.171,265.865 89.360,265.865 89.503 C 265.865 89.646,265.684 89.926,265.464 90.125 C 265.243 90.325,265.063 90.568,265.063 90.666 C 265.063 90.764,264.971 90.953,264.858 91.086 C 264.074 92.016,263.858 92.321,263.758 92.637 C 263.695 92.834,263.512 93.046,263.351 93.108 C 263.190 93.170,263.058 93.349,263.058 93.506 C 263.058 93.663,262.922 93.844,262.757 93.907 C 262.591 93.971,262.456 94.161,262.456 94.330 C 262.456 94.498,262.377 94.637,262.280 94.637 C 262.183 94.637,261.992 94.907,261.855 95.238 C 261.718 95.569,261.526 95.840,261.429 95.840 C 261.332 95.840,261.253 95.955,261.253 96.096 C 261.253 96.237,261.073 96.506,260.852 96.695 C 260.632 96.884,260.451 97.175,260.451 97.341 C 260.451 97.508,260.359 97.644,260.246 97.644 C 260.034 97.644,259.555 98.618,259.622 98.912 C 259.642 99.003,259.582 99.030,259.488 98.972 C 259.394 98.914,259.098 99.220,258.831 99.653 C 258.564 100.086,258.278 100.443,258.195 100.446 C 258.113 100.449,258.045 100.551,258.045 100.673 C 258.045 100.795,257.818 101.178,257.541 101.525 C 256.707 102.567,255.639 104.162,255.639 104.365 C 255.639 104.427,255.452 104.677,255.223 104.921 C 254.994 105.164,254.528 105.792,254.187 106.316 C 253.846 106.840,253.492 107.268,253.400 107.268 C 253.308 107.268,253.233 107.357,253.233 107.467 C 253.233 107.576,252.872 108.185,252.431 108.820 C 251.990 109.455,251.629 110.078,251.629 110.204 C 251.629 110.330,251.494 110.485,251.328 110.549 C 251.163 110.612,251.028 110.753,251.028 110.861 C 251.028 110.969,250.821 111.279,250.569 111.551 C 250.317 111.823,249.979 112.301,249.818 112.613 C 249.656 112.925,249.321 113.371,249.073 113.605 C 248.825 113.839,248.622 114.090,248.622 114.163 C 248.622 114.328,247.605 115.899,247.269 116.255 C 247.130 116.401,247.018 116.639,247.018 116.785 C 247.018 116.931,246.882 117.102,246.717 117.165 C 246.551 117.229,246.416 117.419,246.416 117.588 C 246.416 117.757,246.324 117.895,246.211 117.895 C 246.099 117.895,245.897 118.143,245.764 118.446 C 245.631 118.749,245.408 119.070,245.267 119.158 C 245.127 119.246,245.013 119.399,245.013 119.498 C 245.013 119.597,244.797 119.911,244.534 120.195 C 244.271 120.479,243.912 121.002,243.737 121.358 C 243.561 121.714,243.416 121.932,243.413 121.842 C 243.407 121.611,241.604 124.272,241.604 124.513 C 241.604 124.622,241.536 124.712,241.452 124.712 C 241.368 124.712,240.895 125.320,240.399 126.064 C 239.904 126.808,239.386 127.536,239.248 127.683 C 239.110 127.829,238.997 128.068,238.997 128.213 C 238.997 128.359,238.862 128.530,238.697 128.594 C 238.531 128.657,238.396 128.847,238.396 129.016 C 238.396 129.185,238.304 129.323,238.191 129.323 C 238.079 129.323,237.877 129.571,237.744 129.875 C 237.611 130.178,237.387 130.498,237.247 130.586 C 237.107 130.675,236.992 130.836,236.992 130.946 C 236.992 131.055,236.901 131.254,236.788 131.387 C 235.985 132.339,235.789 132.620,235.789 132.818 C 235.789 132.942,235.632 133.189,235.439 133.366 C 234.969 133.798,234.386 134.580,234.386 134.778 C 234.386 134.865,234.228 135.107,234.035 135.315 C 233.501 135.889,232.982 136.606,232.982 136.770 C 232.982 136.851,232.708 137.216,232.374 137.582 C 232.039 137.947,231.715 138.442,231.654 138.682 C 231.593 138.922,231.416 139.168,231.260 139.227 C 231.105 139.287,230.977 139.464,230.977 139.621 C 230.977 139.778,230.842 139.959,230.677 140.022 C 230.511 140.086,230.376 140.276,230.376 140.445 C 230.376 140.614,230.292 140.752,230.189 140.752 C 230.086 140.752,229.948 140.922,229.882 141.129 C 229.816 141.337,229.586 141.720,229.371 141.981 C 228.797 142.678,228.729 142.771,228.071 143.759 C 227.740 144.256,227.424 144.707,227.369 144.762 C 227.069 145.061,226.366 146.179,226.366 146.358 C 226.366 146.473,226.273 146.566,226.159 146.566 C 226.045 146.566,225.894 146.724,225.822 146.917 C 225.657 147.360,224.911 148.449,224.712 148.538 C 224.629 148.575,224.561 148.694,224.561 148.802 C 224.561 149.023,223.542 150.439,223.308 150.543 C 223.226 150.580,223.158 150.733,223.158 150.884 C 223.158 151.035,223.045 151.230,222.907 151.318 C 222.608 151.510,221.880 152.541,221.697 153.033 C 221.625 153.226,221.473 153.383,221.360 153.383 C 221.246 153.383,221.153 153.505,221.153 153.653 C 221.153 153.801,220.972 154.086,220.752 154.286 C 220.531 154.485,220.351 154.725,220.351 154.818 C 220.351 154.911,220.193 155.157,220.000 155.365 C 219.364 156.049,218.947 156.669,218.947 156.933 C 218.947 157.076,218.862 157.193,218.758 157.193 C 218.582 157.193,218.370 157.516,217.704 158.797 C 217.561 159.073,217.241 159.489,216.992 159.722 C 216.744 159.955,216.541 160.213,216.541 160.295 C 216.541 160.377,216.338 160.692,216.090 160.996 C 215.842 161.300,215.504 161.750,215.338 161.996 C 215.173 162.242,214.880 162.629,214.687 162.856 C 214.494 163.084,214.336 163.336,214.336 163.417 C 214.336 163.498,213.908 164.139,213.386 164.840 C 212.382 166.188,212.105 166.608,211.687 167.419 C 211.545 167.694,211.247 168.100,211.024 168.321 C 210.802 168.541,210.351 169.128,210.022 169.624 C 209.693 170.120,209.356 170.556,209.273 170.593 C 209.190 170.630,209.123 170.749,209.123 170.857 C 209.123 170.966,208.897 171.350,208.622 171.712 C 208.346 172.073,208.120 172.434,208.120 172.514 C 208.120 172.595,208.008 172.783,207.870 172.934 C 206.942 173.948,206.217 174.974,205.676 176.040 C 205.536 176.316,205.353 176.591,205.270 176.652 C 205.016 176.837,203.509 178.909,203.509 179.074 C 203.509 179.158,203.303 179.450,203.051 179.722 C 202.799 179.994,202.460 180.472,202.299 180.785 C 201.974 181.414,201.919 181.492,201.187 182.356 C 200.907 182.687,200.537 183.224,200.363 183.549 C 200.190 183.875,199.925 184.264,199.773 184.416 C 199.622 184.567,199.499 184.810,199.499 184.955 C 199.499 185.101,199.363 185.272,199.198 185.336 C 199.033 185.399,198.897 185.589,198.897 185.758 C 198.897 185.927,198.805 186.065,198.692 186.065 C 198.580 186.065,198.379 186.313,198.246 186.617 C 198.112 186.920,197.889 187.240,197.749 187.328 C 197.608 187.416,197.494 187.610,197.494 187.758 C 197.494 187.906,197.358 188.079,197.193 188.143 C 197.028 188.206,196.892 188.355,196.892 188.473 C 196.892 188.592,196.712 188.882,196.491 189.119 C 196.271 189.356,196.090 189.658,196.090 189.791 C 196.090 189.924,195.955 190.084,195.789 190.148 C 195.624 190.211,195.489 190.394,195.489 190.553 C 195.489 190.713,195.421 190.874,195.338 190.911 C 195.110 191.012,194.286 192.236,194.286 192.473 C 194.286 192.588,194.204 192.682,194.104 192.682 C 194.004 192.682,193.679 193.097,193.382 193.604 C 193.085 194.112,192.670 194.698,192.461 194.908 C 192.251 195.117,192.080 195.429,192.080 195.601 C 192.080 195.773,191.993 195.859,191.886 195.793 C 191.779 195.727,191.635 195.896,191.567 196.168 C 191.498 196.440,191.315 196.712,191.160 196.771 C 191.004 196.831,190.877 197.018,190.877 197.187 C 190.877 197.356,190.802 197.494,190.711 197.494 C 190.619 197.494,190.416 197.742,190.259 198.045 C 189.958 198.630,189.895 198.721,189.269 199.479 C 188.378 200.561,187.076 200.501,211.712 200.501 L 234.552 200.501 235.318 199.449 C 235.739 198.870,236.153 198.366,236.237 198.329 C 236.322 198.292,236.391 198.148,236.391 198.009 C 236.391 197.870,236.571 197.593,236.792 197.393 C 237.013 197.194,237.193 196.864,237.193 196.661 C 237.193 196.457,237.286 196.291,237.400 196.291 C 237.514 196.291,237.665 196.133,237.737 195.940 C 237.902 195.497,238.648 194.408,238.847 194.319 C 238.930 194.282,238.997 194.122,238.997 193.962 C 238.997 193.802,239.129 193.621,239.291 193.559 C 239.452 193.497,239.635 193.285,239.698 193.088 C 239.760 192.891,239.967 192.547,240.156 192.323 C 240.346 192.100,240.637 191.718,240.802 191.474 C 240.967 191.231,241.245 190.839,241.420 190.603 C 241.594 190.368,241.794 190.018,241.864 189.825 C 241.935 189.632,242.085 189.474,242.199 189.474 C 242.313 189.474,242.406 189.384,242.406 189.275 C 242.406 189.166,242.767 188.557,243.208 187.922 C 243.649 187.287,244.010 186.639,244.010 186.483 C 244.010 186.327,244.066 186.254,244.133 186.322 C 244.242 186.430,246.015 184.033,246.015 183.779 C 246.015 183.724,246.221 183.457,246.473 183.185 C 246.725 182.914,247.064 182.435,247.225 182.122 C 247.387 181.810,247.723 181.328,247.972 181.053 C 248.221 180.777,248.476 180.392,248.538 180.197 C 248.600 180.002,248.918 179.551,249.245 179.194 C 249.572 178.838,249.889 178.350,249.950 178.110 C 250.011 177.870,250.188 177.624,250.344 177.565 C 250.499 177.505,250.627 177.318,250.627 177.149 C 250.627 176.980,250.694 176.840,250.777 176.838 C 250.860 176.836,251.198 176.387,251.529 175.840 C 251.860 175.292,252.198 174.843,252.281 174.841 C 252.363 174.839,252.431 174.699,252.431 174.530 C 252.431 174.361,252.560 174.173,252.718 174.113 C 252.876 174.052,253.096 173.739,253.209 173.418 C 253.321 173.096,253.508 172.832,253.624 172.832 C 253.740 172.832,253.835 172.738,253.835 172.623 C 253.835 172.444,254.537 171.326,254.838 171.028 C 255.154 170.713,256.040 169.265,256.040 169.062 C 256.040 168.930,256.120 168.822,256.217 168.822 C 256.314 168.822,256.786 168.213,257.265 167.469 C 257.745 166.724,258.184 166.070,258.241 166.015 C 258.532 165.737,259.248 164.601,259.248 164.419 C 259.248 164.304,259.330 164.211,259.430 164.211 C 259.529 164.211,259.860 163.782,260.164 163.258 C 260.468 162.734,260.770 162.261,260.835 162.206 C 260.954 162.104,261.024 161.999,262.009 160.433 C 262.310 159.955,262.718 159.373,262.916 159.139 C 263.114 158.906,263.472 158.395,263.711 158.004 C 263.950 157.613,264.262 157.174,264.404 157.028 C 264.545 156.883,264.662 156.684,264.662 156.587 C 264.662 156.491,264.884 156.172,265.156 155.879 C 265.427 155.586,265.765 155.085,265.906 154.766 C 266.047 154.447,266.219 154.185,266.287 154.185 C 266.415 154.185,268.070 151.846,268.070 151.664 C 268.070 151.608,268.162 151.453,268.274 151.320 C 269.091 150.351,269.273 150.081,269.273 149.838 C 269.273 149.686,269.409 149.509,269.574 149.446 C 269.739 149.382,269.875 149.202,269.875 149.045 C 269.875 148.888,270.010 148.707,270.175 148.644 C 270.341 148.580,270.476 148.409,270.476 148.264 C 270.476 148.118,270.600 147.875,270.751 147.724 C 270.902 147.573,271.174 147.183,271.355 146.857 C 271.873 145.926,272.134 145.564,272.832 144.809 C 273.190 144.422,273.484 143.982,273.484 143.832 C 273.484 143.682,273.574 143.559,273.684 143.559 C 273.794 143.559,273.885 143.421,273.885 143.252 C 273.885 143.083,274.020 142.893,274.185 142.829 C 274.351 142.766,274.486 142.637,274.486 142.544 C 274.486 142.374,275.217 141.205,275.789 140.460 C 275.955 140.245,276.090 139.961,276.090 139.830 C 276.090 139.699,276.226 139.540,276.391 139.476 C 276.556 139.413,276.692 139.223,276.692 139.054 C 276.692 138.885,276.787 138.747,276.903 138.747 C 277.019 138.747,277.205 138.483,277.318 138.161 C 277.430 137.839,277.651 137.526,277.808 137.466 C 277.966 137.405,278.095 137.218,278.095 137.049 C 278.095 136.880,278.182 136.742,278.287 136.742 C 278.393 136.742,278.728 136.313,279.032 135.789 C 279.337 135.266,279.679 134.727,279.793 134.593 C 280.384 133.898,280.501 133.743,280.501 133.657 C 280.501 133.605,280.862 133.019,281.303 132.355 C 281.744 131.691,282.105 131.038,282.105 130.904 C 282.105 130.770,282.163 130.718,282.234 130.788 C 282.372 130.926,283.509 129.245,283.509 128.904 C 283.509 128.791,283.593 128.750,283.695 128.813 C 283.797 128.876,283.939 128.746,284.009 128.524 C 284.080 128.302,284.221 128.120,284.324 128.120 C 284.427 128.120,284.511 128.024,284.511 127.906 C 284.511 127.789,284.737 127.397,285.013 127.035 C 285.288 126.674,285.514 126.281,285.514 126.163 C 285.514 126.045,285.581 125.918,285.664 125.881 C 285.829 125.808,286.717 124.586,286.717 124.432 C 286.717 124.379,286.991 124.037,287.326 123.672 C 287.661 123.306,287.984 122.811,288.046 122.571 C 288.107 122.331,288.284 122.085,288.439 122.026 C 288.595 121.966,288.722 121.779,288.722 121.610 C 288.722 121.441,288.790 121.303,288.873 121.303 C 288.957 121.303,289.152 121.010,289.308 120.652 C 289.464 120.293,289.779 119.815,290.009 119.589 C 290.549 119.058,291.328 117.961,291.328 117.733 C 291.328 117.635,291.509 117.347,291.729 117.093 C 291.950 116.838,292.130 116.516,292.130 116.377 C 292.130 116.238,292.217 116.094,292.322 116.057 C 292.620 115.953,294.135 113.846,294.135 113.536 C 294.135 113.384,294.219 113.311,294.321 113.375 C 294.424 113.438,294.568 113.298,294.642 113.064 C 294.717 112.830,294.926 112.465,295.108 112.253 C 295.290 112.040,295.439 111.796,295.439 111.709 C 295.439 111.621,295.574 111.402,295.739 111.221 C 296.353 110.548,296.541 110.288,296.541 110.113 C 296.541 110.014,296.744 109.703,296.992 109.422 C 297.788 108.521,298.145 107.995,298.145 107.729 C 298.145 107.586,298.236 107.469,298.346 107.469 C 298.456 107.469,298.546 107.331,298.546 107.162 C 298.546 106.993,298.682 106.803,298.847 106.739 C 299.013 106.676,299.148 106.508,299.148 106.366 C 299.148 106.223,299.372 105.895,299.646 105.635 C 299.919 105.375,300.145 105.050,300.147 104.912 C 300.149 104.774,300.218 104.662,300.301 104.661 C 300.383 104.661,300.715 104.188,301.037 103.609 C 301.359 103.030,301.810 102.370,302.039 102.142 C 302.533 101.652,302.836 101.201,303.310 100.251 C 303.502 99.865,303.772 99.477,303.910 99.389 C 304.048 99.300,304.160 99.147,304.160 99.048 C 304.160 98.949,304.367 98.645,304.619 98.373 C 304.871 98.102,305.209 97.628,305.370 97.321 C 305.532 97.014,305.867 96.542,306.115 96.272 C 306.363 96.002,306.566 95.673,306.566 95.541 C 306.566 95.408,306.747 95.137,306.967 94.937 C 307.188 94.738,307.368 94.450,307.368 94.298 C 307.368 94.147,307.500 93.972,307.662 93.910 C 307.823 93.848,308.014 93.610,308.087 93.380 C 308.213 92.982,308.359 92.766,308.922 92.138 C 309.060 91.984,309.173 91.771,309.173 91.664 C 309.173 91.558,309.397 91.258,309.671 90.998 C 309.945 90.739,310.170 90.414,310.172 90.276 C 310.174 90.138,310.266 90.025,310.376 90.025 C 310.486 90.025,310.576 89.929,310.576 89.811 C 310.576 89.578,311.586 88.162,311.830 88.053 C 311.912 88.017,311.980 87.856,311.980 87.696 C 311.980 87.537,312.115 87.354,312.281 87.291 C 312.446 87.227,312.581 87.099,312.581 87.005 C 312.581 86.846,313.366 85.570,313.752 85.103 C 314.330 84.402,315.358 82.818,315.476 82.445 C 315.553 82.203,315.700 82.005,315.803 82.005 C 315.906 82.005,315.990 81.920,315.990 81.817 C 315.990 81.713,316.261 81.332,316.593 80.969 C 316.924 80.606,317.252 80.127,317.322 79.904 C 317.392 79.681,317.711 79.230,318.031 78.901 C 318.350 78.573,318.663 78.099,318.726 77.849 C 318.789 77.598,318.924 77.393,319.026 77.393 C 319.128 77.393,319.278 77.236,319.360 77.043 C 319.653 76.351,320.444 75.188,320.621 75.188 C 320.721 75.188,320.802 75.053,320.802 74.887 C 320.802 74.722,320.881 74.586,320.978 74.586 C 321.075 74.586,321.272 74.302,321.416 73.954 C 321.561 73.606,321.925 73.069,322.226 72.761 C 322.527 72.453,322.832 72.016,322.904 71.790 C 322.976 71.564,323.119 71.378,323.222 71.378 C 323.797 71.378,323.306 70.617,322.456 70.191 C 321.932 69.928,321.264 69.592,320.972 69.443 C 320.679 69.294,320.261 69.173,320.044 69.173 C 319.826 69.173,319.536 69.038,319.398 68.872 C 319.261 68.707,318.945 68.571,318.697 68.571 C 318.448 68.571,318.132 68.436,317.995 68.271 C 317.858 68.105,317.633 67.970,317.495 67.970 C 317.357 67.970,316.804 67.774,316.266 67.534 C 315.728 67.294,315.064 67.072,314.790 67.041 C 314.516 67.010,314.260 66.891,314.222 66.776 C 314.183 66.661,313.990 66.566,313.792 66.566 C 313.594 66.566,313.320 66.431,313.183 66.266 C 313.046 66.100,312.804 65.965,312.646 65.965 C 312.488 65.965,311.935 65.767,311.418 65.526 C 310.900 65.284,310.262 65.054,310.001 65.014 C 309.739 64.975,309.394 64.811,309.234 64.652 C 309.075 64.492,308.770 64.361,308.557 64.361 C 308.344 64.361,308.170 64.275,308.170 64.169 C 308.170 64.064,307.855 63.919,307.469 63.846 C 307.083 63.774,306.767 63.651,306.767 63.573 C 306.767 63.495,306.316 63.308,305.764 63.158 C 305.213 63.008,304.762 62.818,304.762 62.737 C 304.762 62.655,304.474 62.525,304.122 62.448 C 303.769 62.370,303.357 62.183,303.205 62.031 C 303.053 61.879,302.760 61.754,302.554 61.754 C 302.348 61.754,302.131 61.677,302.072 61.581 C 302.013 61.486,301.534 61.288,301.008 61.142 C 300.481 60.995,299.931 60.757,299.785 60.613 C 299.639 60.469,299.346 60.351,299.134 60.351 C 298.921 60.351,298.747 60.261,298.747 60.150 C 298.747 60.040,298.606 59.950,298.433 59.950 C 298.261 59.950,297.627 59.724,297.024 59.449 C 296.421 59.173,295.834 58.947,295.719 58.947 C 295.604 58.947,295.375 58.812,295.209 58.647 C 295.044 58.481,294.697 58.346,294.438 58.346 C 294.180 58.346,293.938 58.278,293.901 58.195 C 293.865 58.113,293.293 57.835,292.632 57.578 C 291.970 57.322,291.058 56.938,290.605 56.726 C 289.705 56.305,288.722 56.216,288.722 56.555 M326.223 87.004 C 326.108 87.218,326.015 87.526,326.015 87.689 C 326.015 87.853,325.940 88.017,325.849 88.053 C 325.624 88.144,324.612 90.321,324.612 90.714 C 324.612 90.887,324.524 91.028,324.417 91.028 C 324.213 91.028,323.208 93.002,323.208 93.403 C 323.208 93.530,323.120 93.634,323.011 93.634 C 322.903 93.634,322.758 93.860,322.689 94.135 C 322.620 94.411,322.483 94.637,322.384 94.637 C 322.286 94.637,322.206 94.742,322.206 94.872 C 322.206 95.146,320.579 98.497,320.372 98.649 C 320.295 98.705,320.170 98.998,320.094 99.300 C 320.019 99.602,319.876 99.850,319.778 99.850 C 319.679 99.850,319.599 99.961,319.599 100.097 C 319.599 100.412,318.546 102.534,318.346 102.623 C 318.263 102.660,318.195 102.788,318.195 102.909 C 318.195 103.159,316.568 106.515,316.373 106.667 C 316.302 106.722,316.175 106.988,316.091 107.259 C 316.006 107.529,315.814 107.874,315.663 108.025 C 315.512 108.176,315.388 108.433,315.388 108.596 C 315.388 108.899,314.595 110.492,314.352 110.678 C 314.278 110.735,314.155 111.028,314.079 111.330 C 314.004 111.632,313.871 111.880,313.784 111.880 C 313.698 111.880,313.566 112.128,313.490 112.431 C 313.414 112.734,313.235 113.118,313.091 113.283 C 312.947 113.449,312.761 113.810,312.678 114.085 C 312.595 114.361,312.472 114.632,312.404 114.687 C 312.163 114.884,311.378 116.475,311.378 116.767 C 311.378 116.931,311.266 117.185,311.128 117.333 C 310.159 118.371,309.748 120.100,310.470 120.100 C 310.639 120.100,310.777 120.183,310.777 120.285 C 310.777 120.386,311.048 120.529,311.378 120.602 C 311.709 120.674,311.980 120.802,311.980 120.886 C 311.980 120.971,312.341 121.147,312.782 121.280 C 313.223 121.412,313.584 121.599,313.584 121.696 C 313.584 121.793,313.855 121.932,314.185 122.005 C 314.516 122.078,314.787 122.213,314.787 122.306 C 314.787 122.399,315.058 122.534,315.388 122.607 C 315.719 122.679,315.990 122.807,315.990 122.891 C 315.990 122.976,316.351 123.152,316.792 123.285 C 317.233 123.417,317.594 123.604,317.594 123.701 C 317.594 123.798,317.865 123.937,318.195 124.010 C 318.526 124.083,318.797 124.218,318.797 124.311 C 318.797 124.404,319.068 124.539,319.398 124.612 C 319.729 124.684,320.000 124.812,320.000 124.896 C 320.000 124.981,320.361 125.157,320.802 125.290 C 321.243 125.422,321.604 125.609,321.604 125.706 C 321.604 125.803,321.875 125.942,322.206 126.015 C 322.536 126.088,322.807 126.223,322.807 126.316 C 322.807 126.409,323.078 126.544,323.409 126.617 C 323.739 126.689,324.010 126.817,324.010 126.901 C 324.010 126.986,324.371 127.162,324.812 127.295 C 325.253 127.427,325.614 127.614,325.614 127.711 C 325.614 127.809,325.885 127.947,326.216 128.020 C 326.546 128.093,326.817 128.228,326.817 128.321 C 326.817 128.414,327.088 128.549,327.419 128.622 C 327.749 128.694,328.020 128.822,328.020 128.906 C 328.020 128.991,328.381 129.167,328.822 129.300 C 329.263 129.432,329.624 129.619,329.624 129.716 C 329.624 129.814,329.895 129.952,330.226 130.025 C 330.556 130.098,330.827 130.233,330.827 130.326 C 330.827 130.419,331.098 130.554,331.429 130.627 C 331.759 130.699,332.030 130.835,332.030 130.927 C 332.030 131.020,332.300 131.155,332.629 131.228 C 332.959 131.300,333.276 131.437,333.335 131.532 C 333.463 131.739,335.525 132.732,335.827 132.732 C 335.944 132.732,336.040 132.816,336.040 132.919 C 336.040 133.022,336.356 133.221,336.742 133.361 C 337.128 133.500,337.444 133.677,337.444 133.753 C 337.444 133.829,337.691 133.953,337.993 134.029 C 338.295 134.105,338.588 134.228,338.645 134.302 C 338.797 134.503,340.957 135.539,341.223 135.539 C 341.350 135.539,341.454 135.619,341.454 135.718 C 341.454 135.816,341.701 135.958,342.003 136.034 C 342.305 136.110,342.598 136.234,342.655 136.309 C 342.813 136.519,344.937 137.544,345.216 137.544 C 345.352 137.544,345.464 137.624,345.464 137.723 C 345.464 137.821,345.711 137.963,346.013 138.039 C 346.315 138.115,346.608 138.239,346.665 138.314 C 346.823 138.524,348.947 139.549,349.226 139.549 C 349.362 139.549,349.474 139.629,349.474 139.728 C 349.474 139.826,349.721 139.968,350.023 140.044 C 350.325 140.120,350.618 140.244,350.675 140.319 C 350.833 140.529,352.957 141.554,353.236 141.554 C 353.372 141.554,353.484 141.634,353.484 141.733 C 353.484 141.831,353.731 141.973,354.033 142.049 C 354.335 142.125,354.628 142.249,354.685 142.324 C 354.843 142.534,356.967 143.559,357.246 143.559 C 357.382 143.559,357.494 143.639,357.494 143.738 C 357.494 143.836,357.741 143.978,358.043 144.054 C 358.345 144.130,358.638 144.254,358.695 144.329 C 358.853 144.539,360.977 145.564,361.256 145.564 C 361.392 145.564,361.504 145.644,361.504 145.743 C 361.504 145.841,361.751 145.983,362.053 146.059 C 362.355 146.135,362.649 146.259,362.705 146.334 C 362.863 146.544,364.987 147.569,365.266 147.569 C 365.402 147.569,365.514 147.649,365.514 147.748 C 365.514 147.846,365.761 147.989,366.063 148.064 C 366.365 148.140,366.659 148.264,366.715 148.339 C 366.873 148.549,368.997 149.574,369.276 149.574 C 369.412 149.574,369.524 149.654,369.524 149.753 C 369.524 149.851,369.771 149.994,370.073 150.069 C 370.375 150.145,370.669 150.269,370.725 150.344 C 370.883 150.554,373.007 151.579,373.286 151.579 C 373.422 151.579,373.534 151.662,373.534 151.764 C 373.534 151.865,373.805 152.008,374.135 152.080 C 374.466 152.153,374.737 152.294,374.737 152.393 C 374.737 152.492,374.962 152.630,375.238 152.700 C 375.514 152.769,375.739 152.894,375.739 152.978 C 375.739 153.062,376.145 153.245,376.642 153.383 C 377.138 153.522,377.544 153.707,377.544 153.795 C 377.544 153.882,377.815 154.013,378.145 154.085 C 378.476 154.158,378.747 154.299,378.747 154.398 C 378.747 154.497,378.972 154.635,379.248 154.705 C 379.524 154.774,379.749 154.896,379.749 154.977 C 379.749 155.058,380.133 155.247,380.602 155.398 C 381.070 155.549,381.502 155.740,381.561 155.823 C 381.724 156.053,384.781 157.594,385.074 157.594 C 385.215 157.594,385.360 157.668,385.397 157.758 C 385.434 157.849,386.546 158.455,387.870 159.106 C 389.193 159.757,390.322 160.353,390.378 160.430 C 390.434 160.507,390.727 160.632,391.030 160.708 C 391.332 160.783,391.579 160.926,391.579 161.024 C 391.579 161.123,391.690 161.203,391.827 161.203 C 392.106 161.203,394.230 162.227,394.388 162.438 C 394.444 162.513,394.737 162.637,395.040 162.713 C 395.342 162.788,395.589 162.931,395.589 163.029 C 395.589 163.128,395.700 163.208,395.837 163.208 C 396.116 163.208,398.240 164.232,398.398 164.443 C 398.454 164.518,398.747 164.642,399.050 164.718 C 399.352 164.793,399.599 164.936,399.599 165.034 C 399.599 165.133,399.689 165.213,399.799 165.213 C 399.932 165.213,400.000 158.137,400.000 144.385 L 400.000 123.557 398.847 122.983 C 398.213 122.668,397.648 122.349,397.592 122.274 C 397.536 122.198,397.243 122.075,396.940 121.999 C 396.638 121.923,396.391 121.781,396.391 121.683 C 396.391 121.584,396.279 121.504,396.143 121.504 C 395.864 121.504,393.740 120.479,393.582 120.269 C 393.526 120.193,393.232 120.070,392.930 119.994 C 392.628 119.918,392.381 119.790,392.381 119.709 C 392.381 119.628,392.020 119.454,391.579 119.322 C 391.138 119.190,390.777 119.002,390.777 118.905 C 390.777 118.808,390.506 118.669,390.175 118.596 C 389.845 118.524,389.574 118.388,389.574 118.296 C 389.574 118.203,389.303 118.068,388.972 117.995 C 388.642 117.922,388.371 117.794,388.371 117.710 C 388.371 117.626,388.010 117.449,387.569 117.317 C 387.128 117.185,386.767 116.997,386.767 116.900 C 386.767 116.803,386.496 116.664,386.165 116.591 C 385.835 116.519,385.564 116.383,385.564 116.291 C 385.564 116.198,385.293 116.063,384.962 115.990 C 384.632 115.917,384.361 115.789,384.361 115.705 C 384.361 115.621,384.000 115.444,383.559 115.312 C 383.118 115.180,382.757 114.992,382.757 114.895 C 382.757 114.798,382.486 114.659,382.155 114.586 C 381.825 114.514,381.554 114.378,381.554 114.286 C 381.554 114.193,381.283 114.058,380.952 113.985 C 380.622 113.912,380.351 113.784,380.351 113.700 C 380.351 113.616,379.990 113.439,379.549 113.307 C 379.108 113.175,378.747 112.987,378.747 112.890 C 378.747 112.793,378.476 112.654,378.145 112.581 C 377.815 112.509,377.544 112.373,377.544 112.281 C 377.544 112.188,377.273 112.053,376.942 111.980 C 376.612 111.907,376.341 111.779,376.341 111.695 C 376.341 111.611,375.980 111.434,375.539 111.302 C 375.098 111.170,374.737 110.982,374.737 110.885 C 374.737 110.788,374.466 110.649,374.135 110.576 C 373.805 110.504,373.534 110.368,373.534 110.276 C 373.534 110.183,373.263 110.048,372.932 109.975 C 372.602 109.902,372.331 109.774,372.331 109.690 C 372.331 109.606,371.970 109.429,371.529 109.297 C 371.088 109.165,370.727 108.977,370.727 108.880 C 370.727 108.783,370.456 108.644,370.125 108.571 C 369.794 108.499,369.524 108.363,369.524 108.271 C 369.524 108.178,369.253 108.043,368.922 107.970 C 368.591 107.897,368.321 107.769,368.321 107.685 C 368.321 107.601,367.960 107.424,367.519 107.292 C 367.078 107.160,366.717 106.972,366.717 106.875 C 366.717 106.778,366.446 106.639,366.115 106.566 C 365.784 106.494,365.514 106.358,365.514 106.266 C 365.514 106.173,365.243 106.038,364.912 105.965 C 364.581 105.892,364.311 105.757,364.311 105.664 C 364.311 105.571,364.039 105.436,363.707 105.363 C 363.375 105.290,362.987 105.125,362.845 104.996 C 362.419 104.610,360.945 103.860,360.612 103.860 C 360.441 103.860,360.301 103.775,360.301 103.672 C 360.301 103.569,359.985 103.370,359.599 103.231 C 359.213 103.091,358.897 102.915,358.897 102.839 C 358.897 102.762,358.650 102.638,358.348 102.562 C 358.046 102.486,357.752 102.364,357.696 102.290 C 357.543 102.089,355.384 101.053,355.118 101.053 C 354.991 101.053,354.887 100.972,354.887 100.874 C 354.887 100.776,354.640 100.633,354.338 100.557 C 354.036 100.481,353.742 100.358,353.686 100.283 C 353.528 100.072,351.404 99.048,351.125 99.048 C 350.989 99.048,350.877 98.967,350.877 98.869 C 350.877 98.771,350.630 98.628,350.328 98.552 C 350.026 98.476,349.732 98.353,349.676 98.278 C 349.518 98.067,347.394 97.043,347.115 97.043 C 346.979 97.043,346.867 96.962,346.867 96.864 C 346.867 96.766,346.620 96.623,346.318 96.547 C 346.016 96.471,345.722 96.348,345.666 96.273 C 345.508 96.062,343.384 95.038,343.105 95.038 C 342.969 95.038,342.857 94.955,342.857 94.853 C 342.857 94.752,342.586 94.609,342.256 94.536 C 341.925 94.464,341.654 94.340,341.654 94.261 C 341.654 94.100,339.408 93.033,339.068 93.033 C 338.946 93.033,338.847 92.950,338.847 92.848 C 338.847 92.746,338.576 92.604,338.246 92.531 C 337.915 92.459,337.644 92.335,337.644 92.256 C 337.644 92.095,335.398 91.028,335.058 91.028 C 334.936 91.028,334.837 90.945,334.837 90.843 C 334.837 90.741,334.566 90.599,334.236 90.526 C 333.905 90.454,333.634 90.330,333.634 90.251 C 333.634 90.090,331.387 89.023,331.048 89.023 C 330.926 89.023,330.827 88.939,330.827 88.838 C 330.827 88.736,330.556 88.594,330.226 88.521 C 329.895 88.449,329.624 88.308,329.624 88.208 C 329.624 88.109,329.398 87.971,329.123 87.902 C 328.847 87.833,328.622 87.707,328.622 87.623 C 328.622 87.539,328.216 87.357,327.719 87.218 C 327.223 87.079,326.817 86.887,326.817 86.791 C 326.817 86.473,326.433 86.610,326.223 87.004 M397.869 185.363 C 396.797 186.411,395.864 187.268,395.796 187.268 C 395.728 187.268,394.802 188.103,393.738 189.123 C 390.846 191.897,387.934 194.628,387.368 195.097 C 387.093 195.325,386.085 196.251,385.130 197.155 C 384.174 198.058,383.027 199.113,382.579 199.499 C 382.132 199.885,381.763 200.268,381.760 200.351 C 381.757 200.434,385.860 200.501,390.877 200.501 L 400.000 200.501 400.000 191.980 C 400.000 187.293,399.959 183.459,399.909 183.459 C 399.858 183.459,398.940 184.316,397.869 185.363 " stroke="none" fill="#0c1332" fill-rule="evenodd"></path></g></svg>