<?xml version="1.0" encoding="utf-8"?>
<!-- Generator: Adobe Illustrator 26.0.0, SVG Export Plug-In . SVG Version: 6.00 Build 0)  -->
<svg version="1.1" id="nav" xmlns="http://www.w3.org/2000/svg" xmlns:xlink="http://www.w3.org/1999/xlink" x="0px" y="0px"
	 viewBox="0 0 1728 1728" style="enable-background:new 0 0 1728 1728;" xml:space="preserve" stroke="black" fill="white">
<path d="M423,1168.6c-50.6-29.7-101.3-59.5-152-89.1c-2.5-1.5-3-3.4-3-6c0-50.7,0-101.4,0.1-152c0-3.3-0.9-5-3.8-6.7
	c-45.3-26.4-90.5-53-135.7-79.6c-1.5-0.9-2.5-2.5-3.7-3.8c0-59.8,0-119.6,0-179.4c1.3-1.2,2.3-2.8,3.8-3.7
	c49.6-29.2,99.2-58.3,148.8-87.4c2.4-1.4,4.3-1.4,6.7,0c49.7,29.2,99.5,58.5,149.3,87.6c2.5,1.5,3.3,3.4,3.2,6.1
	c0,51.2,0,102.5-0.1,153.7c0,2.1,0.7,3.2,2.5,4.3c45.6,26.7,91.1,53.5,136.7,80.1c2.7,1.6,3.8,3.4,3.8,6.5
	c-0.1,58-0.1,116.1,0,174.1c0,3.2-1.1,5.1-3.9,6.7c-49.5,28.9-98.9,58-148.3,86.9c-1,0.6-2.1,1.1-3.2,1.7
	C424,1168.6,423.5,1168.6,423,1168.6z M275.1,994.1c0,25.7,0,51.5,0,77.2c0,1.7,0.4,2.7,2,3.6c48.3,28.3,96.7,56.7,144.9,85.1
	c1.4,0.8,2.5,0.8,3.9,0c48.2-28.3,96.5-56.7,144.7-84.9c1.6-0.9,2.1-1.9,2.1-3.8c-0.1-56.6-0.1-113.2,0-169.8c0-2-0.7-2.9-2.3-3.9
	c-45.6-26.7-91.3-53.5-136.9-80.2c-2.8-1.6-3.8-3.6-3.8-6.7c0.1-51,0-102,0.1-153c0-2.3-0.6-3.5-2.6-4.7
	c-48.1-28.1-96.1-56.3-144.1-84.6c-1.6-1-2.7-0.9-4.3,0c-48.1,28.3-96.2,56.5-144.3,84.7c-1.7,1-2.4,2.1-2.4,4.1
	c0.1,56.3,0.1,112.7,0,169c0,2.3,0.8,3.5,2.7,4.6c45.5,26.6,91,53.4,136.5,80c2.8,1.6,3.8,3.6,3.8,6.7
	C275.1,943.1,275.1,968.6,275.1,994.1z"/>
<path d="M764.7,875c0-2.7,0-4.9,0-7c0-28.3,0-56.6,0-84.9c0-6.3,2.1-8.3,8.4-8.3c8.6,0,17.1,0,25.7,0c5.6,0,7.7,2.1,7.7,7.7
	c0,54.6,0,109.2,0,163.8c0,4.5-1.4,6.8-5,7.1c-1.6,0.2-3.7-0.5-5-1.5c-13.9-10.5-27.7-21.2-41.5-31.8c-28-21.6-56.1-43.2-84.1-64.8
	c-0.4-0.3-0.8-0.5-1.6-1.1c0,1.4,0,2.4,0,3.3c0,29.3,0,58.5-0.1,87.8c0,6.4-2,8.4-8.5,8.4c-8.6,0-17.1,0-25.7,0
	c-5.4,0-7.6-2.2-7.6-7.6c0-54.4,0-108.9,0-163.3c0-5.5,3.2-8.4,7.8-7c1.2,0.4,2.4,1.3,3.4,2.1c40.6,31.3,81.3,62.6,121.9,93.9
	C761.8,872.9,763,873.7,764.7,875z"/>
<path d="M1357.3,875.2c0-3.5,0-6.3,0-9.1c0-27.7,0-55.3,0-83c0-6.2,2.1-8.3,8.3-8.3c8.6,0,17.1,0,25.7,0c5.5,0,7.7,2.2,7.7,7.7
	c0,54.6,0,109.2,0,163.8c0,4.3-1.4,6.8-4.8,7.1c-1.8,0.2-4-0.5-5.5-1.6c-8.9-6.6-17.7-13.4-26.5-20.2
	c-32.8-25.3-65.7-50.6-98.5-75.9c-0.5-0.4-1-0.7-2-1.3c0,1.3,0,2.3,0,3.3c0,29.3,0,58.5-0.1,87.8c0,6.3-2,8.4-8.3,8.4
	c-8.6,0-17.1,0-25.7,0c-5.7,0-7.8-2.1-7.8-7.8c0-54.3,0-108.5,0-162.8c0-4.6,1.4-7,4.8-7.3c1.6-0.2,3.8,0.4,5.1,1.3
	c14.4,10.9,28.7,21.9,43,32.9c23,17.7,45.9,35.4,68.9,53.1C1346.8,867.1,1351.8,871,1357.3,875.2z"/>
<path d="M866.6,835.4c2,0,3.8,0,5.6,0c31,0,62.1,0,93.1,0c0.7,0,1.4,0,2.2,0c4.5,0.3,6.5,2.3,6.5,6.8c0.1,6.3,0,12.6,0,18.9
	c0,3,0,6.1,0,9.1c-0.1,4.3-2.3,6.4-6.5,6.6c-1.1,0-2.2,0-3.4,0c-30.9,0-61.9,0-92.8,0c-1.5,0-3,0-4.8,0c0,2,0,3.6,0,5.3
	c0,21.1,0,42.2,0,63.3c0,6-2.1,8.1-8.1,8.1c-8.6,0-17.1,0-25.7,0c-5.6,0-7.7-2.1-7.7-7.7c0-40.1-0.1-80.2,0-120.4
	c0.1-21.2,12.8-39.7,32.5-47.4c5.8-2.3,11.8-3.5,18-3.5c40.3,0,80.6,0,120.9,0c5.3,0,7.5,2.3,7.5,7.7c0,8.7,0,17.4,0,26.1
	c0,5.5-2.2,7.7-7.7,7.7c-39.7,0-79.3,0.1-119,0c-6.1,0-10,3.6-10.5,7.8C866.3,827.7,866.6,831.4,866.6,835.4z"/>
<path d="M1527.8,816.6c0,2.1,0,3.9,0,5.6c0,40.9,0,81.8,0,122.8c0,0.9,0,1.8,0,2.6c-0.3,3.9-2.3,6.2-6.2,6.3
	c-9.8,0.2-19.5,0.2-29.3,0c-4-0.1-6-2.5-6-6.6c-0.1-4.2,0-8.5,0-12.7c0-37.6,0-75.1,0-112.7c0-1.7,0-3.3,0-5.3c-1.4,0-2.5,0-3.6,0
	c-19.1,0-38.2,0-57.3,0c-5.7,0-7.7-2-7.7-7.8c0-8.7,0-17.4,0-26.1c0-5.4,2.2-7.6,7.6-7.6c54.6,0,109.2,0,163.8,0
	c5.3,0,7.5,2.2,7.5,7.4c0,9,0,17.9,0,26.9c0,5.2-2.2,7.3-7.3,7.3c-19.2,0-38.4,0-57.6,0C1530.5,816.6,1529.4,816.6,1527.8,816.6z"/>
<path d="M1132.8,816.5c0,2.7,0,5,0,7.3c0,40.4,0,80.7,0,121.1c0,0.8,0,1.6,0,2.4c-0.2,4-2.3,6.4-6.2,6.5c-9.7,0.1-19.4,0.1-29,0
	c-4-0.1-6.1-2.4-6.2-6.5c-0.1-3.8,0-7.5,0-11.3c0-37.3,0-74.6,0-112c0-2.4,0-4.8,0-7.5c-1.3,0-2.4,0-3.5,0c-19,0-37.9,0-56.9,0
	c-0.9,0-1.8,0-2.6-0.1c-3.8-0.6-5.6-2.3-5.7-6.2c-0.1-9.7-0.2-19.3,0-29c0.1-4.2,2.4-6.1,6.6-6.3c0.6,0,1.3,0,1.9,0
	c53.8,0,107.6,0,161.4,0c0.8,0,1.6,0,2.4,0c4.2,0.3,6.2,2.4,6.4,6.5c0.1,1.7,0,3.4,0,5c0,7.5,0,15,0,22.5c0,5.4-2.1,7.5-7.6,7.5
	c-18.3,0-36.6,0-54.9,0C1137.1,816.5,1135.2,816.5,1132.8,816.5z"/>
<path d="M291.1,985.6c0-25.3,0-50.5,0-75.8c0-1.8,0.6-2.7,2.1-3.6c43.2-25.3,86.3-50.6,129.4-76c1.5-0.9,2.6-0.8,4.1,0.1
	c43.1,25.3,86.1,50.6,129.2,75.8c1.6,0.9,2.1,2,2.1,3.8c-0.1,50.5-0.1,101,0,151.6c0,1.9-0.6,3-2.2,3.9
	c-42.9,25.1-85.8,50.3-128.6,75.5c-1.9,1.1-3.2,1.2-5.1,0c-42.8-25.2-85.7-50.4-128.6-75.5c-1.7-1-2.4-2.1-2.4-4.1
	C291.1,1036.1,291.1,1010.9,291.1,985.6z"/>
<path d="M414,741.9c0,25.3,0,50.5,0,75.8c0,1.9-0.6,2.9-2.3,3.9c-43.1,25.2-86.2,50.5-129.2,75.8c-1.4,0.8-2.4,0.9-3.9,0.1
	c-43.2-25.4-86.4-50.8-129.6-76.1c-1.4-0.8-2-1.7-2-3.3c0.1-50.7,0.1-101.5,0-152.2c0-1.7,0.6-2.5,2-3.3
	c43.2-25.3,86.4-50.7,129.6-76.1c1.5-0.9,2.5-0.8,3.9,0c43.1,25.3,86.1,50.6,129.2,75.8c1.6,1,2.3,2,2.3,3.9
	C413.9,691.4,414,716.7,414,741.9z"/>
</svg>
